<svg width="744" height="767" viewBox="0 0 744 767" fill="none" xmlns="http://www.w3.org/2000/svg">
<path d="M779 88.9999L752.74 97.6686C739.6 102.006 725.124 100.821 712.97 94.4131L700.696 87.942C696.037 85.4863 690.474 85.0831 685.474 86.8386C675.62 90.2986 670.203 101.93 678.613 107.89C686.54 113.508 695.553 112.759 703.749 109.274C714.613 104.654 715.871 91.4318 709.747 81.7724C701.287 68.4265 681.996 65.7898 669.883 76.3239L661.953 83.2209C650.665 93.0375 632.4 88.277 628.029 74.3792L627.492 72.6731C624.143 62.023 611.521 56.7198 600.913 61.5055C593.422 64.8855 584.479 63.3128 578.775 57.6122L562.279 41.1279L531 1" stroke="#9EBB13" stroke-opacity="0.7" stroke-width="0.8"/>
<path d="M751 408.5C751 430.837 732.897 449 710.5 449C688.103 449 670 430.837 670 408.5C670 386.163 688.103 368 710.5 368C732.897 368 751 386.163 751 408.5Z" fill="white" fill-opacity="0.15" stroke="#9EBB13" stroke-opacity="0.15"/>
<path d="M346.761 119.558L363.125 77.6088" stroke="#9EB81D" stroke-opacity="0.15" stroke-linecap="round"/>
<path d="M353.249 135.817L369.614 93.8683" stroke="#9EB81D" stroke-opacity="0.15" stroke-linecap="round"/>
<path d="M360.594 152.688L376.958 110.739" stroke="#9EB81D" stroke-opacity="0.15" stroke-linecap="round"/>
<path d="M366.47 169.804L382.835 127.855" stroke="#9EB81D" stroke-opacity="0.15" stroke-linecap="round"/>
<path d="M295.279 113.836L335.391 123.721" stroke="#9EB81D" stroke-opacity="0.15" stroke-linecap="round"/>
<path d="M301.158 130.952L341.269 140.837" stroke="#9EB81D" stroke-opacity="0.15" stroke-linecap="round"/>
<path d="M309.724 146.11L349.836 155.995" stroke="#9EB81D" stroke-opacity="0.15" stroke-linecap="round"/>
<path d="M315.357 161.759L355.468 171.643" stroke="#9EB81D" stroke-opacity="0.15" stroke-linecap="round"/>
<path d="M387.643 206.233L409.252 137.013M409.252 137.013L399.47 137.14L378.775 200.153C378.492 201.016 377.297 201.085 376.917 200.26L335.384 110.149L356.634 56.8252M409.252 137.013L366.904 55.1083L356.634 56.8252M356.634 56.8252L394.453 129.684" stroke="#9EB81D" stroke-opacity="0.15"/>
<path d="M377.862 213.146L304.001 197.592M304.001 197.592L309.375 184.628L374.045 201.944C374.86 202.162 375.562 201.336 375.216 200.568L334.307 109.693L278.028 96.3587M304.001 197.592L273.39 113.724L278.028 96.3587M278.028 96.3587L307.903 175.824" stroke="#9EB81D" stroke-opacity="0.15"/>
<path d="M97.4813 618.163V618.163C104.718 614.237 112.97 612.584 121.16 613.421L127.225 614.041C135.566 614.893 143.988 613.639 151.719 610.393L153.85 609.499" stroke="#9EB81D" stroke-opacity="0.15" stroke-linecap="round"/>
<path d="M100.216 627.925V627.925C107.453 623.998 115.705 622.346 123.895 623.183L129.959 623.802C138.301 624.655 146.723 623.401 154.454 620.155L156.585 619.26" stroke="#9EB81D" stroke-opacity="0.15" stroke-linecap="round"/>
<path d="M103.438 638.847V638.847C110.674 634.92 118.927 633.267 127.117 634.104L133.181 634.724C141.523 635.576 149.945 634.322 157.676 631.076L159.807 630.182" stroke="#9EB81D" stroke-opacity="0.15" stroke-linecap="round"/>
<path d="M105.987 651.415V651.415C113.223 647.488 121.476 645.835 129.666 646.672L135.73 647.292C144.072 648.145 152.494 646.89 160.225 643.644L162.356 642.75" stroke="#9EB81D" stroke-opacity="0.15" stroke-linecap="round"/>
<path d="M84.0909 620.376V620.376C74.0919 621.135 65.0141 626.499 59.5264 634.892L59.3486 635.164C55.0505 641.737 49.81 647.644 43.795 652.694L38.2455 657.353" stroke="#9EB81D" stroke-opacity="0.15" stroke-linecap="round"/>
<path d="M89.2949 631.147V631.147C79.2959 631.906 70.2181 637.27 64.7304 645.663L64.5526 645.935C60.2545 652.508 55.014 658.415 48.999 663.465L43.4495 668.124" stroke="#9EB81D" stroke-opacity="0.15" stroke-linecap="round"/>
<path d="M90.1976 643.042V643.042C80.1986 643.801 71.1208 649.165 65.6331 657.558L65.4553 657.83C61.1572 664.403 55.9167 670.31 49.9017 675.36L44.3522 680.019" stroke="#9EB81D" stroke-opacity="0.15" stroke-linecap="round"/>
<path d="M95.065 654.636V654.636C85.0661 655.395 75.9882 660.759 70.5005 669.152L70.3227 669.424C66.0246 675.997 60.7841 681.904 54.7691 686.954L49.2196 691.613" stroke="#9EB81D" stroke-opacity="0.15" stroke-linecap="round"/>
<path d="M26.8724 654.627L25.412 651.149L39.8062 639.507C40.7271 638.763 41.5565 637.911 42.2772 636.972L61.9001 611.38C64.4307 608.08 68.2178 605.978 72.3572 605.577L84.8695 604.365L89.1045 601.768C95.5417 597.82 102.987 595.825 110.535 596.027L137.961 596.759C140.454 596.826 142.941 596.487 145.324 595.755L153.806 593.151L179.605 654.6L156.575 660.142C154.206 660.712 151.737 660.733 149.359 660.204L130.179 655.94C122.404 654.211 114.47 658.112 111.093 665.326L109.323 669.106M26.8724 654.627L49.1933 717.536L65.0572 705.497C66.5446 704.368 67.9303 703.111 69.1985 701.741L75.4102 695.028C80.2857 689.76 84.2726 683.734 87.2151 677.186V677.186C90.6854 669.465 99.4827 665.677 107.477 668.463L109.323 669.106M26.8724 654.627L22.4129 655.942C21.867 656.103 21.5654 656.687 21.7497 657.225L45.4938 726.59L112.917 674.417L186.491 661.256L159.868 599.471L156.427 599.394M109.323 669.106L85.2222 604.509" stroke="#9EB81D" stroke-opacity="0.15" stroke-linecap="round"/>
<path d="M120.395 667.867V667.867C124.557 663.561 130.585 661.602 136.483 662.638L139.263 663.126C144.82 664.102 150.505 664.094 156.059 663.102L178.746 659.052" stroke="#9EB81D" stroke-opacity="0.15" stroke-linecap="round"/>
<path d="M106.992 672.997V672.997C101.356 671.861 95.6127 674.373 92.6214 679.283L88.6891 685.737C85.6177 690.778 81.6851 695.24 77.0704 698.921L56.9726 714.952" stroke="#9EB81D" stroke-opacity="0.15" stroke-linecap="round"/>
<path d="M798 589C798 636.433 759.558 675 712 675C664.442 675 626 636.433 626 589C626 541.567 664.442 503 712 503C759.558 503 798 541.567 798 589Z" fill="white" fill-opacity="0.15" stroke="#9EBB13" stroke-opacity="0.15"/>
<path d="M656.731 752.874L663.303 742.555C680.132 716.129 678.95 682.068 660.329 656.872V656.872" stroke="#9EB81D" stroke-linecap="round"/>
<path d="M655.932 639.359C658.346 642.706 661.917 655.223 663.443 660.849C663.688 661.755 662.619 662.403 661.864 661.807C657.258 658.172 647.179 650.049 644.774 646.715C641.631 642.357 641.58 637.178 644.661 635.147C647.742 633.115 652.788 635.001 655.932 639.359Z" fill="#EEFF9B"/>
<path d="M681.32 655.192C680.862 659.455 675.758 671.497 673.244 677.232C672.848 678.136 671.532 677.882 671.403 676.876C670.596 670.587 669.05 657.551 669.506 653.302C670.117 647.626 673.256 643.448 676.519 643.969C679.781 644.491 681.931 649.516 681.32 655.192Z" fill="#EEFF9B"/>
<path d="M690.949 675.137C689.243 679.676 680.64 691.692 676.46 697.396C675.854 698.223 674.58 697.658 674.733 696.631C675.777 689.622 678.068 675.096 679.77 670.569C682.042 664.524 686.387 660.646 689.474 661.907C692.561 663.169 693.221 669.092 690.949 675.137Z" fill="#EEFF9B"/>
<path d="M690.448 697.602C688.502 700.64 680.852 707.928 676.522 711.951C675.754 712.665 674.59 711.865 674.971 710.887C677.099 705.428 680.979 695.763 682.918 692.735C685.674 688.432 689.594 686.034 691.673 687.378C693.752 688.722 693.204 693.3 690.448 697.602Z" fill="#EEFF9B"/>
<path d="M686.741 717.06C684.773 719.179 678.011 723.774 673.746 726.586C672.861 727.17 671.836 726.178 672.398 725.282C675.076 721.011 679.417 714.257 681.379 712.145C684.323 708.976 687.909 707.507 689.39 708.864C690.871 710.221 689.685 713.891 686.741 717.06Z" fill="#EEFF9B"/>
<path d="M656.96 660.155C660.109 662.697 667.091 673.044 670.413 678.102C670.957 678.93 670.084 679.925 669.18 679.504C663.746 676.975 652.682 671.689 649.544 669.155C645.334 665.756 643.58 660.985 645.628 658.5C647.675 656.014 652.749 656.755 656.96 660.155Z" fill="#EEFF9B"/>
<path d="M653.997 681.898C657.857 683.789 667.765 692.258 672.759 696.627C673.545 697.314 672.919 698.561 671.917 698.308C665.61 696.72 653.323 693.503 649.474 691.617C644.217 689.042 640.968 684.779 642.216 682.095C643.465 679.411 648.74 679.323 653.997 681.898Z" fill="#EEFF9B"/>
<path d="M654.492 699.331C658.119 700.692 667.684 707.772 672.485 711.418C673.296 712.034 672.824 713.292 671.829 713.166C666.022 712.43 654.654 710.868 651.038 709.512C646.108 707.662 642.884 703.884 643.838 701.073C644.792 698.262 649.561 697.482 654.492 699.331Z" fill="#EEFF9B"/>
<path d="M655.411 717.102C658.09 718.107 664.908 722.934 668.907 725.853C669.742 726.462 669.264 727.747 668.256 727.603C663.491 726.921 655.509 725.683 652.84 724.682C648.944 723.22 646.361 720.339 647.071 718.246C647.781 716.152 651.515 715.64 655.411 717.102Z" fill="#EEFF9B"/>
<path d="M656.78 637.176C657.364 637.986 658.031 639.371 658.728 641.102C659.423 642.826 660.142 644.875 660.833 646.997C662.217 651.242 663.489 655.773 664.252 658.585C664.343 658.919 664.196 659.199 663.95 659.348C663.702 659.499 663.36 659.511 663.069 659.281C660.767 657.465 657.099 654.527 653.707 651.629C652.01 650.179 650.385 648.741 649.034 647.458C647.68 646.172 646.614 645.053 646.028 644.24C644.482 642.096 643.704 639.761 643.684 637.727C643.664 635.692 644.399 633.982 645.85 633.026C647.303 632.068 649.245 632.017 651.236 632.762C653.225 633.505 655.234 635.033 656.78 637.176ZM682.122 652.836C682.011 653.875 681.613 655.406 681.031 657.222C680.451 659.034 679.693 661.113 678.871 663.24C677.225 667.496 675.323 671.936 674.066 674.802C673.92 675.135 673.615 675.253 673.321 675.196C673.024 675.138 672.751 674.903 672.701 674.515C672.298 671.372 671.71 666.543 671.28 661.971C670.849 657.388 670.58 653.094 670.806 651C671.107 648.197 672.032 645.779 673.269 644.133C674.509 642.482 676.028 641.647 677.53 641.887C679.039 642.128 680.34 643.423 681.193 645.417C682.042 647.403 682.424 650.034 682.122 652.836ZM691.766 672.72C690.925 674.957 688.366 679.07 685.475 683.361C682.592 687.641 679.398 692.068 677.309 694.919C677.083 695.227 676.744 695.275 676.464 695.151C676.182 695.026 675.973 694.731 676.031 694.338C676.553 690.835 677.386 685.454 678.302 680.384C679.219 675.305 680.213 670.566 681.055 668.328C682.18 665.334 683.814 662.89 685.533 661.355C687.263 659.811 689.02 659.233 690.43 659.809C691.845 660.388 692.76 662.064 693.023 664.427C693.285 666.775 692.891 669.727 691.766 672.72ZM691.288 695.138C690.333 696.63 687.954 699.192 685.253 701.902C682.559 704.603 679.566 707.428 677.402 709.439C676.834 709.967 675.967 709.386 676.254 708.649C677.318 705.92 678.819 702.142 680.296 698.668C681.776 695.186 683.223 692.033 684.18 690.54C685.542 688.413 687.185 686.768 688.731 685.822C690.292 684.867 691.674 684.668 692.588 685.258C693.502 685.849 693.895 687.197 693.676 689.022C693.46 690.827 692.65 693.012 691.288 695.138ZM687.609 714.561C686.645 715.598 684.484 717.262 682.01 719.031C679.544 720.793 676.79 722.643 674.659 724.048C673.991 724.488 673.245 723.747 673.66 723.085C674.999 720.951 676.752 718.197 678.415 715.714C680.083 713.224 681.648 711.025 682.613 709.986C684.066 708.422 685.669 707.286 687.078 706.709C688.509 706.123 689.645 706.145 690.272 706.719C690.897 707.292 691.01 708.413 690.537 709.876C690.072 711.317 689.061 712.996 687.609 714.561ZM657.853 658.02C658.619 658.638 659.632 659.744 660.78 661.149C661.925 662.55 663.194 664.236 664.47 666.002C667.021 669.534 669.595 673.382 671.255 675.91C671.655 676.519 671.021 677.267 670.336 676.948C667.62 675.684 663.499 673.732 659.665 671.779C655.822 669.822 652.297 667.878 650.752 666.631C648.675 664.955 647.215 662.948 646.524 661.069C645.832 659.185 645.926 657.476 646.871 656.329C647.817 655.181 649.491 654.746 651.497 655.038C653.497 655.33 655.777 656.344 657.853 658.02ZM654.937 679.793C656.837 680.724 660.256 683.294 663.846 686.198C667.426 689.095 671.149 692.302 673.645 694.485C673.945 694.748 673.973 695.105 673.836 695.378C673.699 695.65 673.405 695.831 673.029 695.736C669.876 694.943 665.23 693.742 660.893 692.504C656.546 691.264 652.535 689.995 650.635 689.064C648.034 687.79 645.94 686.103 644.655 684.416C643.36 682.717 642.929 681.084 643.494 679.871C644.057 678.662 645.559 677.98 647.658 677.945C649.743 677.91 652.336 678.519 654.937 679.793ZM655.455 697.236C656.337 697.567 657.598 698.254 659.078 699.165C660.554 700.073 662.236 701.197 663.956 702.394C667.397 704.786 670.985 707.465 673.384 709.287C673.696 709.524 673.756 709.873 673.651 710.153C673.546 710.432 673.282 710.636 672.911 710.589C670.009 710.221 665.718 709.647 661.702 708.995C657.676 708.342 653.957 707.616 652.177 706.948C649.744 706.036 647.744 704.651 646.473 703.162C645.195 701.664 644.69 700.109 645.125 698.824C645.56 697.544 646.88 696.68 648.765 696.372C650.641 696.065 653.022 696.324 655.455 697.236ZM656.374 715.007C657.682 715.497 660.031 716.937 662.576 718.638C665.111 720.333 667.812 722.267 669.81 723.725C670.131 723.959 670.194 724.311 670.089 724.594C669.985 724.874 669.718 725.08 669.342 725.026C666.96 724.685 663.777 724.206 660.856 723.687C657.927 723.166 655.288 722.609 653.979 722.118C652.061 721.399 650.477 720.334 649.465 719.204C648.444 718.065 648.046 716.915 648.358 715.997C648.668 715.083 649.659 714.461 651.131 714.259C652.591 714.059 654.456 714.287 656.374 715.007Z" stroke="black" stroke-width="0.5"/>
<path d="M657.135 752.946L671.58 744.281C690.687 732.819 707.24 717.559 720.215 699.445V699.445" stroke="#9EB81D" stroke-linecap="round"/>
<path d="M732.67 687.494C731.027 690.777 722.913 698.859 718.927 702.724C718.232 703.398 717.109 702.787 717.3 701.838C718.373 696.488 720.687 685.584 722.324 682.315C724.521 677.926 728.618 675.528 731.475 676.958C734.332 678.388 734.867 683.106 732.67 687.494Z" fill="#BEDA31" fill-opacity="0.65"/>
<path d="M727.306 713.984C724.306 715.144 714.555 715.769 709.42 716.025C708.438 716.074 708.012 714.844 708.812 714.272C712.928 711.33 720.741 705.881 723.727 704.726C727.864 703.127 732.019 703.903 733.007 706.459C733.996 709.016 731.443 712.385 727.306 713.984Z" fill="#BEDA31" fill-opacity="0.65"/>
<path d="M720.114 727.836C716.553 728.295 705.874 726.727 700.241 725.825C699.238 725.664 699.109 724.313 700.061 723.961C705.343 722.009 715.298 718.449 718.846 717.992C723.768 717.358 728.043 719.048 728.393 721.766C728.743 724.484 725.037 727.202 720.114 727.836Z" fill="#BEDA31" fill-opacity="0.65"/>
<path d="M705.899 739.268C702.916 739.06 694.827 736.636 689.818 735.061C688.803 734.742 688.94 733.313 689.997 733.191C695.161 732.596 703.436 731.732 706.41 731.939C710.86 732.25 714.353 734.142 714.212 736.165C714.07 738.189 710.349 739.578 705.899 739.268Z" fill="#BEDA31" fill-opacity="0.65"/>
<path d="M689.319 748.002C686.977 747.637 680.99 745.367 676.857 743.727C675.859 743.332 676.119 741.907 677.192 741.886C681.593 741.798 687.904 741.749 690.237 742.113C693.968 742.695 696.787 744.485 696.533 746.111C696.279 747.737 693.049 748.584 689.319 748.002Z" fill="#BEDA31" fill-opacity="0.65"/>
<path d="M715.55 698.258C714.965 701.44 710.272 710.146 707.774 714.626C707.298 715.479 706.04 715.2 705.965 714.227C705.581 709.198 704.958 699.586 705.54 696.419C706.342 692.056 709.232 688.932 711.997 689.44C714.761 689.948 716.352 693.896 715.55 698.258Z" fill="#BEDA31" fill-opacity="0.65"/>
<path d="M701.267 703.767C701.46 707.19 699.344 717.159 698.117 722.586C697.891 723.584 696.524 723.62 696.245 722.636C694.749 717.35 692.131 707.705 691.938 704.294C691.667 699.499 693.536 695.493 696.112 695.347C698.688 695.202 700.996 698.971 701.267 703.767Z" fill="#BEDA31" fill-opacity="0.65"/>
<path d="M689.137 714.544C689.627 717.602 688.383 726.81 687.635 731.81C687.488 732.793 686.179 732.959 685.79 732.044C683.846 727.463 680.4 719.068 679.912 716.022C679.226 711.745 680.736 707.947 683.284 707.539C685.831 707.131 688.452 710.267 689.137 714.544Z" fill="#BEDA31" fill-opacity="0.65"/>
<path d="M675.357 727.467C675.716 729.707 675.002 736.104 674.479 740.166C674.35 741.168 673.018 741.337 672.639 740.4C671.126 736.662 668.845 730.796 668.488 728.567C667.946 725.187 669.045 722.201 670.942 721.897C672.838 721.593 674.815 724.087 675.357 727.467Z" fill="#BEDA31" fill-opacity="0.65"/>
<path d="M733.096 684.838C732.699 685.631 731.9 686.733 730.847 688.012C729.798 689.286 728.509 690.72 727.144 692.175C724.416 695.085 721.394 698.068 719.403 700C718.883 700.504 718.052 700.05 718.194 699.342C718.731 696.669 719.577 692.609 720.493 688.81C721.412 684.999 722.394 681.486 723.197 679.882C724.277 677.725 725.819 676.067 727.428 675.125C729.039 674.183 730.685 673.972 732.013 674.637C733.341 675.302 734.159 676.746 734.369 678.6C734.579 680.452 734.176 682.681 733.096 684.838ZM727.865 711.206C727.142 711.486 725.992 711.739 724.578 711.965C723.169 712.189 721.514 712.384 719.789 712.55C716.34 712.883 712.623 713.103 710.057 713.231C709.326 713.268 709.008 712.359 709.607 711.93C711.664 710.46 714.643 708.364 717.48 706.493C720.327 704.615 723.003 702.98 724.467 702.415C726.499 701.629 728.525 701.432 730.152 701.735C731.783 702.04 732.972 702.837 733.424 704.005C733.875 705.172 733.531 706.562 732.529 707.885C731.53 709.204 729.898 710.42 727.865 711.206ZM720.732 725.044C718.988 725.268 715.46 724.996 711.634 724.548C707.82 724.101 703.745 723.484 700.93 723.033C700.184 722.914 700.084 721.915 700.798 721.651C703.437 720.676 707.243 719.299 710.832 718.109C714.43 716.916 717.782 715.92 719.528 715.695C721.955 715.383 724.21 715.645 725.892 716.31C727.582 716.978 728.636 718.026 728.794 719.253C728.953 720.481 728.199 721.761 726.733 722.836C725.275 723.905 723.159 724.731 720.732 725.044ZM706.566 736.474C705.104 736.372 702.36 735.722 699.334 734.892C696.317 734.064 693.046 733.065 690.542 732.278C689.786 732.04 689.885 730.986 690.676 730.895C693.256 730.597 696.613 730.233 699.696 729.969C702.786 729.704 705.578 729.542 707.042 729.644C709.24 729.797 711.189 730.341 712.563 731.085C713.958 731.841 714.671 732.749 714.612 733.603C714.552 734.457 713.72 735.258 712.233 735.813C710.769 736.36 708.764 736.627 706.566 736.474ZM690.007 745.21C688.863 745.032 686.803 744.382 684.493 743.562C682.191 742.746 679.664 741.77 677.599 740.951C676.856 740.656 677.044 739.607 677.847 739.591C680.046 739.547 682.721 739.513 685.137 739.535C687.56 739.557 689.703 739.636 690.849 739.815C692.688 740.102 694.291 740.686 695.395 741.387C695.947 741.737 696.364 742.111 696.627 742.482C696.888 742.851 696.986 743.203 696.936 743.528C696.885 743.852 696.684 744.158 696.323 744.43C695.96 744.703 695.449 744.932 694.816 745.098C693.551 745.43 691.847 745.497 690.007 745.21ZM715.954 695.669C715.813 696.435 715.419 697.555 714.859 698.886C714.3 700.213 713.583 701.735 712.805 703.299C711.249 706.429 709.453 709.721 708.205 711.96C707.851 712.595 706.92 712.391 706.864 711.663C706.672 709.15 706.42 705.493 706.29 702.071C706.158 698.636 706.15 695.471 706.436 693.919C706.829 691.777 707.734 689.951 708.866 688.728C710 687.502 711.333 686.908 712.601 687.141C713.869 687.374 714.904 688.403 715.528 689.952C716.151 691.498 716.347 693.527 715.954 695.669ZM701.667 701.237C701.761 702.913 701.288 706.23 700.628 709.836C699.971 713.429 699.136 717.274 698.523 719.987C698.354 720.731 697.343 720.758 697.136 720.024C696.388 717.382 695.36 713.652 694.495 710.158C693.628 706.654 692.932 703.414 692.837 701.736C692.704 699.371 693.099 697.213 693.834 695.638C694.573 694.053 695.624 693.117 696.776 693.052C697.927 692.987 699.077 693.798 699.99 695.29C700.897 696.772 701.533 698.872 701.667 701.237ZM689.54 712.039C689.658 712.777 689.674 713.904 689.614 715.274C689.555 716.638 689.423 718.227 689.252 719.879C688.909 723.182 688.411 726.73 688.037 729.228C687.927 729.962 686.96 730.085 686.67 729.402C685.698 727.112 684.352 723.871 683.188 720.823C682.02 717.766 681.047 714.931 680.808 713.438C680.471 711.336 680.676 709.364 681.267 707.877C681.86 706.385 682.821 705.426 683.973 705.241C685.125 705.057 686.337 705.668 687.367 706.9C688.392 708.128 689.203 709.937 689.54 712.039ZM675.759 724.962C675.933 726.046 675.848 728.175 675.649 730.568C675.451 732.95 675.142 735.56 674.881 737.589C674.785 738.334 673.804 738.463 673.52 737.762C672.764 735.894 671.817 733.496 671.015 731.288C670.209 729.071 669.558 727.07 669.384 725.983C669.119 724.328 669.258 722.78 669.685 721.62C670.114 720.452 670.811 719.73 671.631 719.599C672.45 719.468 673.338 719.935 674.111 720.911C674.879 721.88 675.494 723.306 675.759 724.962Z" stroke="black" stroke-width="0.5"/>
<path d="M563.052 753.791L558.477 738.539C550.116 710.669 552.144 680.714 564.184 654.225V654.225" stroke="#9EB81D" stroke-linecap="round"/>
<path d="M565.879 636.249C563.999 639.923 562.366 652.836 561.709 658.628C561.604 659.561 562.759 660.04 563.415 659.336C567.417 655.045 576.15 645.489 578.022 641.83C580.469 637.047 579.734 631.919 576.381 630.378C573.028 628.836 568.326 631.465 565.879 636.249Z" fill="#EEFF9B"/>
<path d="M544.392 656.615C545.385 660.361 551.958 670.321 555.153 675.025C555.691 675.816 556.903 675.377 556.903 674.392C556.901 668.636 556.772 656.688 555.783 652.958C554.463 647.979 550.843 644.761 547.697 645.771C544.552 646.781 543.072 651.636 544.392 656.615Z" fill="#EEFF9B"/>
<path d="M535.803 673.555C537.904 677.297 547.439 686.436 552.032 690.732C552.756 691.41 553.877 690.684 553.605 689.716C551.908 683.654 548.255 671.076 546.161 667.346C543.368 662.372 538.786 659.73 535.925 661.444C533.065 663.158 533.01 668.581 535.803 673.555Z" fill="#EEFF9B"/>
<path d="M534.626 696.004C537.009 698.712 545.675 704.757 550.565 708.078C551.432 708.666 552.462 707.7 551.937 706.791C549.007 701.717 543.708 692.751 541.332 690.051C537.956 686.216 533.718 684.439 531.867 686.082C530.015 687.726 531.251 692.168 534.626 696.004Z" fill="#EEFF9B"/>
<path d="M539.877 718.274C541.976 720.263 549.018 724.416 553.453 726.95C554.375 727.476 555.334 726.421 554.716 725.562C551.771 721.472 547.006 715.009 544.914 713.026C541.774 710.051 538.1 708.815 536.71 710.264C535.319 711.713 536.736 715.299 539.877 718.274Z" fill="#EEFF9B"/>
<path d="M567.494 654.745C564.767 657.734 559.432 669.02 556.914 674.522C556.502 675.424 557.516 676.274 558.346 675.722C563.334 672.399 573.469 665.498 576.187 662.518C579.835 658.52 580.845 653.539 578.445 651.393C576.044 649.246 571.142 650.747 567.494 654.745Z" fill="#EEFF9B"/>
<path d="M571.364 672.95C567.836 675.404 559.325 685.275 555.049 690.35C554.377 691.148 555.184 692.286 556.137 691.885C562.13 689.36 573.788 684.319 577.307 681.872C582.114 678.531 584.68 673.824 583.039 671.36C581.398 668.897 576.171 669.608 571.364 672.95Z" fill="#EEFF9B"/>
<path d="M570.321 692.293C566.941 694.187 558.559 702.634 554.366 706.965C553.657 707.696 554.315 708.869 555.279 708.594C560.907 706.986 571.908 703.721 575.276 701.833C579.869 699.258 582.484 695.035 581.115 692.401C579.747 689.766 574.914 689.718 570.321 692.293Z" fill="#EEFF9B"/>
<path d="M569.485 715.294C566.989 716.693 560.981 722.497 557.47 725.988C556.737 726.717 557.404 727.914 558.379 727.619C562.986 726.224 570.688 723.791 573.174 722.397C576.804 720.362 578.921 717.123 577.902 715.161C576.883 713.2 573.115 713.26 569.485 715.294Z" fill="#EEFF9B"/>
<path d="M572.322 648.246C571.399 649.316 570.45 650.393 569.52 651.435C569.103 651.807 568.696 652.209 568.303 652.639C568.025 652.945 567.722 653.331 567.4 653.785C566.197 655.106 565.099 656.293 564.226 657.229C563.974 657.499 563.634 657.539 563.366 657.428C563.1 657.318 562.913 657.063 562.952 656.719C563.28 653.825 563.851 649.153 564.576 644.748C564.938 642.545 565.338 640.411 565.764 638.601C566.191 636.785 566.64 635.315 567.095 634.425C568.299 632.073 570.053 630.258 571.906 629.223C573.761 628.186 575.689 627.941 577.271 628.668C578.849 629.394 579.835 630.973 580.123 632.987C580.412 635.001 579.997 637.427 578.793 639.779C578.336 640.672 577.452 641.939 576.309 643.416C575.168 644.889 573.779 646.556 572.322 648.246ZM567.79 654.099C568.459 653.364 569.161 652.587 569.874 651.789C571.37 650.459 572.989 649.53 574.504 649.067C576.443 648.473 578.163 648.65 579.272 649.642C580.38 650.633 580.732 652.307 580.333 654.275C579.935 656.236 578.795 658.441 576.996 660.413C575.658 661.88 572.468 664.334 568.966 666.851C565.472 669.362 561.694 671.916 559.201 673.577C558.641 673.95 557.992 673.48 558.072 672.904C558.093 672.846 558.109 672.785 558.122 672.721C558.126 672.711 558.131 672.7 558.135 672.689C559.394 669.939 561.355 665.746 563.342 661.868C564.335 659.929 565.334 658.071 566.254 656.513C566.803 655.582 567.321 654.763 567.79 654.099ZM557.637 672.588C557.614 672.653 557.596 672.717 557.583 672.781C557.496 672.988 557.329 673.134 557.139 673.203C556.863 673.302 556.551 673.238 556.354 672.947C554.757 670.597 552.318 666.934 550.154 663.393C549.072 661.623 548.061 659.884 547.258 658.357C546.453 656.825 545.868 655.521 545.627 654.614C544.978 652.164 545.02 649.753 545.603 647.84C546.187 645.923 547.301 644.543 548.768 644.072C550.229 643.603 551.831 644.105 553.253 645.368C554.673 646.631 555.886 648.634 556.535 651.085C557.021 652.918 557.301 656.807 557.457 660.988C557.613 665.156 557.646 669.578 557.647 672.455C557.647 672.501 557.644 672.545 557.637 672.588ZM553.197 688.613C550.901 686.466 547.372 683.11 544.155 679.824C542.547 678.181 541.018 676.558 539.762 675.113C538.502 673.664 537.526 672.407 537.015 671.496C535.636 669.04 534.966 666.484 534.988 664.343C535.01 662.194 535.724 660.515 537.048 659.721C538.369 658.93 540.126 659.122 541.938 660.167C543.744 661.208 545.558 663.076 546.937 665.532C547.969 667.37 549.398 671.42 550.788 675.795C552.173 680.159 553.51 684.816 554.358 687.846C554.462 688.216 554.303 688.531 554.05 688.694C553.799 688.857 553.466 688.865 553.197 688.613ZM551.699 705.934C549.256 704.274 545.87 701.935 542.798 699.673C539.717 697.404 536.978 695.232 535.808 693.902C534.139 692.006 533.008 689.969 532.521 688.217C532.029 686.447 532.213 685.055 533.027 684.332C533.84 683.61 535.236 683.598 536.925 684.306C538.596 685.006 540.469 686.384 542.138 688.28C543.309 689.611 545.217 692.508 547.208 695.726C549.194 698.936 551.25 702.443 552.714 704.979C553.11 705.664 552.341 706.37 551.699 705.934ZM554.571 724.796C552.355 723.53 549.489 721.86 546.915 720.259C544.333 718.652 542.071 717.13 541.042 716.156C539.493 714.687 538.377 713.076 537.82 711.668C537.255 710.238 537.296 709.112 537.884 708.5C538.472 707.887 539.605 707.793 541.07 708.286C542.513 708.772 544.186 709.803 545.736 711.271C546.765 712.246 548.467 714.341 550.291 716.719C552.109 719.091 554.035 721.727 555.507 723.772C555.963 724.405 555.266 725.193 554.571 724.796ZM556.234 688.574C558.371 686.038 561.565 682.304 564.666 678.899C567.774 675.484 570.764 672.426 572.501 671.219C574.879 669.565 577.351 668.57 579.416 668.289C581.497 668.006 583.085 668.452 583.825 669.562C584.566 670.676 584.388 672.354 583.365 674.231C582.35 676.092 580.536 678.077 578.158 679.73C576.421 680.938 572.648 682.801 568.54 684.685C564.439 686.565 560.029 688.455 557.033 689.718C556.676 689.868 556.357 689.734 556.181 689.486C556.005 689.237 555.978 688.879 556.234 688.574ZM555.539 705.202C557.635 703.037 560.776 699.846 563.814 696.959C565.334 695.516 566.826 694.151 568.147 693.029C569.473 691.904 570.615 691.035 571.437 690.574C573.703 689.304 576.017 688.687 577.919 688.706C579.828 688.726 581.264 689.38 581.887 690.579C582.513 691.783 582.249 693.397 581.213 695.071C580.182 696.736 578.414 698.408 576.148 699.678C574.49 700.607 570.923 701.888 567.042 703.144C563.171 704.396 559.017 705.613 556.204 706.417C555.844 706.519 555.552 706.357 555.407 706.098C555.261 705.837 555.267 705.482 555.539 705.202ZM558.64 724.228C560.395 722.484 562.772 720.163 565.021 718.104C567.278 716.038 569.383 714.258 570.601 713.576C572.388 712.574 574.197 712.066 575.671 712.042C577.156 712.019 578.23 712.484 578.674 713.34C579.121 714.201 578.903 715.397 578.066 716.678C577.236 717.948 575.832 719.241 574.046 720.242C572.826 720.926 570.302 721.876 567.485 722.834C564.677 723.79 561.603 724.746 559.3 725.443C558.936 725.553 558.642 725.39 558.496 725.129C558.35 724.866 558.359 724.508 558.64 724.228Z" stroke="black" stroke-width="0.5"/>
<path d="M562.708 753.864L549.232 743.757C531.407 730.388 516.514 713.504 505.473 694.15V694.15" stroke="#9EB81D" stroke-linecap="round"/>
<path d="M493.745 679.469C495.132 683.144 502.627 692.723 506.33 697.334C506.949 698.105 508.161 697.602 508.051 696.619C507.401 690.831 505.952 679.044 504.57 675.383C502.713 670.464 498.785 667.391 495.795 668.519C492.806 669.648 491.888 674.55 493.745 679.469Z" fill="#BEDA31" fill-opacity="0.65"/>
<path d="M496.923 707.882C499.787 709.344 509.422 710.971 514.503 711.755C515.475 711.905 516.026 710.724 515.289 710.073C511.498 706.723 504.288 700.498 501.436 699.042C497.486 697.025 493.273 697.369 492.027 699.81C490.78 702.251 492.973 705.865 496.923 707.882Z" fill="#BEDA31" fill-opacity="0.65"/>
<path d="M502.649 722.401C506.144 723.224 516.928 722.764 522.624 722.447C523.638 722.391 523.906 721.06 522.995 720.612C517.943 718.127 508.407 713.56 504.925 712.74C500.094 711.602 495.669 712.843 495.04 715.51C494.412 718.178 497.819 721.263 502.649 722.401Z" fill="#BEDA31" fill-opacity="0.65"/>
<path d="M515.612 735.236C518.601 735.337 526.896 733.759 532.041 732.708C533.083 732.495 533.094 731.06 532.055 730.83C526.98 729.705 518.838 727.994 515.859 727.894C511.4 727.744 507.731 729.267 507.663 731.294C507.595 733.322 511.154 735.087 515.612 735.236Z" fill="#BEDA31" fill-opacity="0.65"/>
<path d="M531.204 745.632C533.571 745.509 539.76 743.868 544.04 742.663C545.074 742.372 544.962 740.929 543.896 740.797C539.528 740.256 533.255 739.557 530.897 739.679C527.126 739.874 524.138 741.364 524.223 743.008C524.308 744.651 527.433 745.826 531.204 745.632Z" fill="#BEDA31" fill-opacity="0.65"/>
<path d="M510.236 693.451C510.49 696.676 514.262 705.819 516.285 710.533C516.67 711.43 517.951 711.282 518.125 710.322C519.026 705.359 520.635 695.862 520.382 692.652C520.034 688.23 517.481 684.824 514.679 685.045C511.877 685.265 509.888 689.029 510.236 693.451Z" fill="#BEDA31" fill-opacity="0.65"/>
<path d="M523.876 700.402C523.331 703.786 524.409 713.92 525.071 719.445C525.192 720.46 526.549 720.637 526.927 719.688C528.96 714.584 532.557 705.26 533.101 701.887C533.864 697.144 532.418 692.967 529.871 692.557C527.323 692.147 524.639 695.659 523.876 700.402Z" fill="#BEDA31" fill-opacity="0.65"/>
<path d="M534.831 712.37C534.028 715.362 534.317 724.649 534.547 729.699C534.592 730.692 535.877 730.992 536.358 730.122C538.763 725.765 543.056 717.77 543.855 714.791C544.977 710.607 543.867 706.674 541.375 706.005C538.883 705.337 535.953 708.187 534.831 712.37Z" fill="#BEDA31" fill-opacity="0.65"/>
<path d="M547.207 726.644C546.619 728.835 546.671 735.272 546.772 739.365C546.797 740.376 548.104 740.681 548.578 739.789C550.468 736.226 553.341 730.626 553.926 728.446C554.813 725.14 554.028 722.056 552.172 721.558C550.317 721.06 548.094 723.337 547.207 726.644Z" fill="#BEDA31" fill-opacity="0.65"/>
<path d="M504.848 695.892C502.997 693.587 500.2 690.043 497.693 686.617C496.44 684.903 495.26 683.222 494.309 681.741C493.354 680.256 492.638 678.987 492.301 678.095C491.386 675.671 491.16 673.262 491.521 671.333C491.883 669.398 492.825 667.989 494.206 667.467C495.588 666.946 497.226 667.381 498.776 668.594C500.322 669.804 501.744 671.761 502.659 674.185C503.339 675.986 504.043 679.819 504.66 683.954C505.276 688.078 505.8 692.468 506.125 695.361C506.208 696.094 505.31 696.468 504.848 695.892ZM512.864 710.221C510.325 709.83 506.65 709.228 503.254 708.541C501.556 708.198 499.929 707.835 498.551 707.466C497.167 707.096 496.05 706.726 495.359 706.373C493.419 705.382 491.921 704.004 491.063 702.589C490.202 701.17 490.003 699.752 490.572 698.637C491.141 697.523 492.407 696.852 494.061 696.717C495.71 696.583 497.705 696.988 499.645 697.978C501.043 698.692 503.537 700.593 506.175 702.754C508.804 704.908 511.551 707.3 513.446 708.974C513.997 709.462 513.587 710.333 512.864 710.221ZM520.933 720.911C518.086 721.07 513.97 721.264 510.131 721.316C506.278 721.367 502.741 721.275 501.029 720.872C498.647 720.311 496.628 719.272 495.288 718.058C493.941 716.838 493.323 715.486 493.606 714.282C493.89 713.077 495.046 712.143 496.797 711.653C498.538 711.165 500.808 711.136 503.19 711.697C504.903 712.101 508.135 713.436 511.591 714.993C515.038 716.547 518.682 718.308 521.207 719.551C521.889 719.886 521.688 720.869 520.933 720.911ZM530.313 731.177C527.743 731.702 524.386 732.359 521.3 732.871C518.204 733.385 515.408 733.75 513.943 733.7C511.741 733.626 509.774 733.153 508.374 732.459C506.952 731.754 506.207 730.872 506.236 730.016C506.264 729.161 507.067 728.331 508.533 727.722C509.976 727.124 511.971 726.784 514.173 726.858C515.64 726.907 518.4 727.356 521.447 727.937C524.485 728.517 527.787 729.226 530.323 729.788C531.1 729.96 531.09 731.018 530.313 731.177ZM542.295 741.137C540.156 741.739 537.542 742.449 535.169 743.024C532.787 743.602 530.67 744.036 529.514 744.096C527.655 744.192 525.966 743.949 524.742 743.489C524.13 743.259 523.645 742.978 523.312 742.669C522.981 742.361 522.812 742.037 522.795 741.709C522.778 741.381 522.913 741.04 523.211 740.7C523.51 740.358 523.963 740.029 524.548 739.737C525.719 739.154 527.373 738.739 529.233 738.643C530.391 738.583 532.53 738.725 534.942 738.952C537.348 739.179 540.005 739.489 542.188 739.759C542.986 739.858 543.064 740.92 542.295 741.137ZM514.837 709.148C513.826 706.792 512.379 703.332 511.154 700.06C510.541 698.423 509.985 696.836 509.566 695.459C509.145 694.076 508.869 692.922 508.808 692.145C508.637 689.974 509.041 687.976 509.82 686.503C510.6 685.027 511.736 684.109 513.021 684.008C514.307 683.907 515.572 684.635 516.573 685.971C517.573 687.305 518.285 689.214 518.456 691.385C518.58 692.958 518.246 696.106 517.761 699.508C517.279 702.9 516.652 706.511 516.202 708.991C516.071 709.709 515.124 709.816 514.837 709.148ZM523.642 718.129C523.311 715.368 522.876 711.457 522.593 707.815C522.308 704.161 522.179 700.812 522.445 699.155C522.822 696.817 523.671 694.794 524.726 693.413C525.788 692.023 527.015 691.335 528.154 691.518C529.293 691.701 530.241 692.74 530.814 694.393C531.382 696.035 531.553 698.222 531.176 700.561C530.909 702.22 529.883 705.371 528.66 708.767C527.44 712.154 526.033 715.758 525.018 718.309C524.735 719.018 523.732 718.887 523.642 718.129ZM533.119 728.401C533.005 725.878 532.875 722.298 532.875 718.977C532.874 717.316 532.906 715.722 532.988 714.359C533.07 712.991 533.201 711.871 533.395 711.149C533.946 709.093 534.939 707.377 536.086 706.261C537.237 705.142 538.506 704.658 539.633 704.961C540.76 705.263 541.616 706.316 542.052 707.862C542.487 709.401 542.488 711.384 541.936 713.44C541.545 714.9 540.285 717.62 538.808 720.541C537.337 723.453 535.664 726.538 534.461 728.715C534.103 729.364 533.153 729.143 533.119 728.401ZM545.344 738.073C545.294 736.028 545.256 733.399 545.304 731.01C545.352 728.609 545.487 726.483 545.771 725.422C546.206 723.803 546.965 722.447 547.828 721.563C548.698 720.672 549.629 720.298 550.43 720.513C551.232 720.728 551.851 721.518 552.158 722.724C552.463 723.922 552.442 725.475 552.007 727.095C551.722 728.158 550.869 730.082 549.839 732.204C548.814 734.318 547.624 736.605 546.68 738.385C546.326 739.053 545.363 738.824 545.344 738.073Z" stroke="black" stroke-width="0.5"/>
<path d="M561.503 440.511C561.504 440.428 561.438 440.36 561.355 440.359C561.272 440.358 561.204 440.424 561.203 440.507L561.503 440.511ZM558.232 436.912C558.233 436.829 558.167 436.761 558.084 436.76C558.002 436.758 557.933 436.825 557.932 436.907L558.232 436.912ZM554.679 433.237C554.68 433.154 554.614 433.086 554.531 433.085C554.448 433.084 554.38 433.15 554.379 433.233L554.679 433.237ZM551.484 429.356C551.485 429.273 551.419 429.205 551.336 429.204C551.253 429.202 551.185 429.269 551.184 429.351L551.484 429.356ZM575.322 437.136C575.405 437.126 575.464 437.052 575.454 436.969C575.444 436.887 575.37 436.828 575.288 436.838L575.322 437.136ZM563.889 438.17C563.807 438.179 563.748 438.254 563.757 438.336C563.767 438.419 563.841 438.477 563.924 438.468L563.889 438.17ZM572.127 433.254C572.209 433.245 572.268 433.17 572.259 433.088C572.249 433.006 572.175 432.947 572.092 432.956L572.127 433.254ZM560.694 434.289C560.611 434.298 560.552 434.373 560.562 434.455C560.572 434.537 560.646 434.596 560.728 434.587L560.694 434.289ZM568.423 430.144C568.505 430.135 568.564 430.06 568.554 429.978C568.545 429.895 568.47 429.837 568.388 429.846L568.423 430.144ZM556.989 431.178C556.907 431.188 556.848 431.262 556.858 431.345C556.867 431.427 556.942 431.486 557.024 431.476L556.989 431.178ZM565.434 426.621C565.517 426.611 565.575 426.537 565.566 426.454C565.556 426.372 565.482 426.313 565.399 426.323L565.434 426.621ZM554.001 427.655C553.918 427.665 553.859 427.739 553.869 427.821C553.879 427.904 553.953 427.963 554.035 427.953L554.001 427.655ZM543.394 442.049L543.245 442.058L543.248 442.119L543.294 442.161L543.394 442.049ZM545.927 441.064L545.982 441.204L546.081 441.165L546.077 441.058L545.927 441.064ZM545.253 424.49L545.403 424.484L545.253 424.49ZM546.957 423.739L547.062 423.633L546.957 423.739ZM565.229 441.85L565.379 441.853L565.38 441.789L565.335 441.743L565.229 441.85ZM564.89 457.792L564.965 457.922L565.038 457.88L565.04 457.795L564.89 457.792ZM562.385 459.239L562.284 459.35L562.365 459.423L562.46 459.368L562.385 459.239ZM564.883 416.043L564.997 415.946L564.943 415.882L564.861 415.895L564.883 416.043ZM564.747 419.939L564.761 420.089L564.892 420.076L564.897 419.945L564.747 419.939ZM547.75 421.582L547.764 421.731L547.75 421.582ZM547.136 423.281L547.029 423.387L547.136 423.281ZM565.553 441.863L565.447 441.969L565.499 442.022L565.572 442.012L565.553 441.863ZM581.494 439.855L581.513 440.004L581.658 439.986L581.644 439.841L581.494 439.855ZM581.011 434.885L581.16 434.871L581.156 434.824L581.125 434.788L581.011 434.885ZM561.203 440.507L561.028 453.014L561.328 453.018L561.503 440.511L561.203 440.507ZM557.932 436.907L557.757 449.415L558.057 449.419L558.232 436.912L557.932 436.907ZM554.379 433.233L554.204 445.74L554.504 445.745L554.679 433.237L554.379 433.233ZM551.184 429.351L551.009 441.859L551.309 441.863L551.484 429.356L551.184 429.351ZM575.288 436.838L563.889 438.17L563.924 438.468L575.322 437.136L575.288 436.838ZM572.092 432.956L560.694 434.289L560.728 434.587L572.127 433.254L572.092 432.956ZM568.388 429.846L556.989 431.178L557.024 431.476L568.423 430.144L568.388 429.846ZM565.399 426.323L554.001 427.655L554.035 427.953L565.434 426.621L565.399 426.323ZM542.13 421.944L543.245 442.058L543.544 442.041L542.429 421.928L542.13 421.944ZM543.449 442.189L545.982 441.204L545.873 440.924L543.34 441.91L543.449 442.189ZM546.077 441.058L545.403 424.484L545.104 424.496L545.777 441.07L546.077 441.058ZM546.851 423.846L565.123 441.956L565.335 441.743L547.062 423.633L546.851 423.846ZM565.079 441.847L564.74 457.789L565.04 457.795L565.379 441.853L565.079 441.847ZM564.99 457.681L548.059 442.405L547.858 442.627L564.789 457.904L564.99 457.681ZM564.815 457.662L562.31 459.109L562.46 459.368L564.965 457.922L564.815 457.662ZM562.485 459.127L543.495 441.938L543.294 442.161L562.284 459.35L562.485 459.127ZM545.403 424.484C545.372 423.712 546.303 423.302 546.851 423.846L547.062 423.633C546.32 422.897 545.061 423.452 545.104 424.496L545.403 424.484ZM544.174 419.333L564.906 416.192L564.861 415.895L544.129 419.037L544.174 419.333ZM564.734 416.038L564.597 419.934L564.897 419.945L565.033 416.049L564.734 416.038ZM564.733 419.79L547.735 421.433L547.764 421.731L564.761 420.089L564.733 419.79ZM547.029 423.387L565.447 441.969L565.66 441.758L547.242 423.176L547.029 423.387ZM565.572 442.012L581.513 440.004L581.476 439.706L565.535 441.715L565.572 442.012ZM581.607 439.757L566.1 421.988L565.874 422.185L581.381 439.954L581.607 439.757ZM581.644 439.841L581.16 434.871L580.862 434.9L581.345 439.87L581.644 439.841ZM581.125 434.788L564.997 415.946L564.769 416.141L580.897 434.983L581.125 434.788ZM547.735 421.433C546.77 421.526 546.347 422.698 547.029 423.387L547.242 423.176C546.738 422.667 547.051 421.8 547.764 421.731L547.735 421.433Z" fill="#9EB81D"/>
<path d="M567.873 738.171C567.873 738.147 567.893 738.127 567.917 738.127H649.002C651.211 738.127 653.002 739.918 653.002 742.127V748.178C653.002 750.387 651.211 752.178 649.002 752.178H567.914C567.892 752.178 567.873 752.159 567.873 752.137V752.137C567.873 751.578 568.305 751.114 568.863 751.074L570.675 750.944C570.722 750.94 570.762 750.909 570.777 750.865L571.005 750.202C572.17 746.806 572.105 743.109 570.822 739.757L570.778 739.643C570.762 739.6 570.724 739.57 570.679 739.563L568.852 739.301C568.291 739.22 567.873 738.739 567.873 738.171V738.171Z" fill="#9EB81D"/>
<path d="M570.949 738.792C570.858 738.477 571.095 738.162 571.423 738.163L613.687 738.35C615.889 738.359 617.669 740.147 617.669 742.35V746.351C617.669 748.56 615.878 750.351 613.669 750.351H571.379C571.076 750.351 570.861 750.056 570.954 749.768V749.768C572.043 746.377 572.095 742.739 571.102 739.318L570.949 738.792Z" fill="white"/>
<path d="M570.949 725.155C570.858 724.84 571.095 724.525 571.423 724.526L613.687 724.713C615.889 724.722 617.669 726.51 617.669 728.713V732.714C617.669 734.923 615.878 736.714 613.669 736.714H571.379C571.076 736.714 570.861 736.419 570.954 736.131V736.131C572.043 732.74 572.095 729.101 571.102 725.681L570.949 725.155Z" fill="white"/>
<path d="M569.873 697.26C569.873 697.236 569.893 697.216 569.917 697.216H651.002C653.211 697.216 655.002 699.007 655.002 701.216V707.267C655.002 709.476 653.211 711.267 651.002 711.267H569.914C569.892 711.267 569.873 711.248 569.873 711.226V711.226C569.873 710.666 570.305 710.202 570.863 710.162L572.675 710.032C572.722 710.029 572.762 709.998 572.777 709.954L573.005 709.29C574.17 705.895 574.105 702.198 572.822 698.845L572.778 698.732C572.762 698.689 572.724 698.659 572.679 698.652L570.852 698.39C570.291 698.309 569.873 697.828 569.873 697.26V697.26Z" fill="#9EB81D"/>
<path d="M570.949 698.881C570.858 698.565 571.095 698.251 571.423 698.252L613.687 698.438C615.889 698.448 617.669 700.236 617.669 702.438V706.44C617.669 708.649 615.878 710.44 613.669 710.44H571.379C571.076 710.44 570.861 710.145 570.954 709.857V709.857C572.043 706.466 572.095 702.827 571.102 699.407L570.949 698.881Z" fill="white"/>
<path d="M653.002 709.897C653.002 709.873 652.982 709.853 652.958 709.853H571.873C569.664 709.853 567.873 711.644 567.873 713.853V719.904C567.873 722.113 569.664 723.904 571.873 723.904H652.961C652.983 723.904 653.002 723.885 653.002 723.863V723.863C653.002 723.304 652.57 722.84 652.012 722.8L650.199 722.669C650.153 722.666 650.113 722.635 650.098 722.591L649.87 721.928C648.705 718.532 648.77 714.835 650.053 711.482L650.096 711.369C650.113 711.326 650.151 711.296 650.196 711.289L652.022 711.027C652.584 710.946 653.002 710.465 653.002 709.897V709.897Z" fill="white"/>
<path d="M649.88 711.154C649.986 710.935 649.825 710.681 649.582 710.681L574.755 710.879C572.55 710.885 570.766 712.674 570.766 714.879V719.077C570.766 721.286 572.557 723.077 574.766 723.077H649.603C649.832 723.077 649.978 722.833 649.87 722.631V722.631C648.044 719.214 647.96 715.13 649.645 711.641L649.88 711.154Z" fill="white"/>
<path d="M653.002 682.623C653.002 682.599 652.982 682.579 652.958 682.579H571.873C569.664 682.579 567.873 684.37 567.873 686.579V692.63C567.873 694.839 569.664 696.63 571.873 696.63H652.961C652.983 696.63 653.002 696.611 653.002 696.589V696.589C653.002 696.03 652.57 695.565 652.012 695.525L650.199 695.395C650.153 695.392 650.113 695.361 650.098 695.317L649.87 694.654C648.705 691.258 648.77 687.561 650.053 684.208L650.096 684.095C650.113 684.052 650.151 684.022 650.196 684.015L652.022 683.753C652.584 683.672 653.002 683.191 653.002 682.623V682.623Z" fill="white"/>
<path d="M649.882 684.266C649.986 684.062 649.837 683.82 649.608 683.82L573.516 684.012C571.311 684.018 569.526 685.807 569.526 688.012V691.803C569.526 694.012 571.317 695.803 573.526 695.803H649.626C649.842 695.803 649.978 695.57 649.872 695.382V695.382C648.024 692.091 647.939 688.095 649.647 684.729L649.882 684.266Z" fill="white"/>
<path d="M607.985 739.854H620.383M606.539 743.987H620.589M614.391 747.706H620.589M602.407 743.987H604.473M606.985 726.217H619.383M606.539 730.349H620.589M613.391 734.069H619.589M602.407 730.349H604.473M607.985 698.943H620.383M606.539 703.075H620.589M614.391 706.794H620.589M602.407 703.075H604.473M587.497 712.58H575.099M588.356 716.712H574.306M581.505 720.432H575.306M592.489 716.712H590.422M628.028 710.514L627.751 711.946C627.115 715.229 627.139 718.605 627.821 721.878M586.257 685.306H573.86M587.117 689.438H573.066M580.265 693.158H574.066M591.249 689.438H589.183M628.028 683.653L627.751 685.085C627.115 688.368 627.139 691.744 627.821 695.017M573.802 749.364L571.99 749.494C571.432 749.534 571 749.998 571 750.557C571 750.58 571.018 750.598 571.041 750.598H652.128C654.337 750.598 656.128 748.808 656.128 746.598V740.548C656.128 738.339 654.337 736.548 652.128 736.548H571.044C571.02 736.548 571 736.568 571 736.592C571 737.16 571.417 737.641 571.979 737.722L573.806 737.984C573.851 737.99 573.889 738.021 573.905 738.064L573.949 738.177C575.232 741.53 575.297 745.227 574.131 748.622L573.904 749.286C573.889 749.33 573.849 749.361 573.802 749.364ZM574.08 749.189C575.17 745.798 575.222 742.159 574.229 738.739L574.076 738.213C573.984 737.897 574.222 737.583 574.55 737.584L616.814 737.77C619.016 737.78 620.796 739.568 620.796 741.77V745.772C620.796 747.981 619.005 749.772 616.796 749.772H574.506C574.203 749.772 573.988 749.477 574.08 749.189ZM573.802 735.727L571.99 735.857C571.432 735.897 571 736.361 571 736.92C571 736.943 571.018 736.961 571.041 736.961H652.128C654.337 736.961 656.128 735.17 656.128 732.961V726.911C656.128 724.702 654.337 722.911 652.128 722.911H571.044C571.02 722.911 571 722.931 571 722.955C571 723.523 571.417 724.004 571.979 724.085L573.806 724.347C573.851 724.353 573.889 724.384 573.905 724.426L573.949 724.54C575.232 727.893 575.297 731.59 574.131 734.985L573.904 735.649C573.889 735.693 573.849 735.724 573.802 735.727ZM574.08 735.551C575.17 732.161 575.222 728.522 574.229 725.102L574.076 724.576C573.984 724.26 574.222 723.946 574.55 723.947L616.814 724.133C619.016 724.143 620.796 725.931 620.796 728.133V732.135C620.796 734.344 619.005 736.135 616.796 736.135H574.506C574.203 736.135 573.988 735.84 574.08 735.551ZM573.802 708.453L571.99 708.583C571.432 708.623 571 709.087 571 709.646C571 709.669 571.018 709.687 571.041 709.687H652.128C654.337 709.687 656.128 707.896 656.128 705.687V699.637C656.128 697.428 654.337 695.637 652.128 695.637H571.044C571.02 695.637 571 695.657 571 695.681C571 696.249 571.417 696.73 571.979 696.811L573.806 697.073C573.851 697.079 573.889 697.11 573.905 697.152L573.949 697.266C575.232 700.619 575.297 704.316 574.131 707.711L573.904 708.375C573.889 708.419 573.849 708.45 573.802 708.453ZM574.08 708.277C575.17 704.887 575.222 701.248 574.229 697.828L574.076 697.301C573.984 696.986 574.222 696.671 574.55 696.673L616.814 696.859C619.016 696.869 620.796 698.657 620.796 700.859V704.861C620.796 707.07 619.005 708.861 616.796 708.861H574.506C574.203 708.861 573.988 708.566 574.08 708.277ZM653.326 722.09L655.139 722.22C655.696 722.26 656.128 722.724 656.128 723.283C656.128 723.306 656.11 723.324 656.087 723.324H575C572.791 723.324 571 721.533 571 719.324V713.274C571 711.065 572.791 709.274 575 709.274H656.084C656.109 709.274 656.128 709.294 656.128 709.318C656.128 709.886 655.711 710.367 655.149 710.448L653.323 710.71C653.278 710.716 653.239 710.747 653.223 710.789L653.18 710.903C651.896 714.256 651.832 717.953 652.997 721.348L653.225 722.012C653.24 722.056 653.28 722.087 653.326 722.09ZM652.997 722.052C651.17 718.635 651.086 714.551 652.771 711.062L653.006 710.575C653.112 710.356 652.952 710.101 652.709 710.102L577.882 710.3C575.677 710.306 573.893 712.095 573.893 714.3V718.498C573.893 720.707 575.684 722.498 577.893 722.498H652.73C652.959 722.498 653.105 722.254 652.997 722.052ZM653.326 694.816L655.139 694.946C655.696 694.986 656.128 695.45 656.128 696.009C656.128 696.032 656.11 696.05 656.087 696.05H575C572.791 696.05 571 694.259 571 692.05V686C571 683.791 572.791 682 575 682H656.084C656.109 682 656.128 682.02 656.128 682.044C656.128 682.612 655.711 683.093 655.149 683.174L653.323 683.436C653.278 683.442 653.239 683.473 653.223 683.515L653.18 683.629C651.896 686.982 651.832 690.679 652.997 694.074L653.225 694.738C653.24 694.782 653.28 694.813 653.326 694.816ZM652.999 694.803C651.15 691.512 651.066 687.516 652.774 684.15L653.009 683.687C653.112 683.482 652.964 683.24 652.734 683.241L576.643 683.433C574.438 683.438 572.653 685.227 572.653 687.433V691.224C572.653 693.433 574.444 695.224 576.653 695.224H652.753C652.969 695.224 653.105 694.991 652.999 694.803Z" stroke="black" stroke-width="0.5" stroke-linecap="round"/>
<circle cx="635.74" cy="673.512" r="2.92383" fill="black"/>
<path d="M637.578 664.74C637.578 670.869 634.965 675.098 630.831 677.817C626.67 680.555 620.932 681.783 614.688 681.783C608.443 681.783 602.855 680.555 598.843 677.822C594.859 675.108 592.382 670.88 592.382 664.74C592.382 658.57 594.887 652.102 598.947 647.178C603.008 642.255 608.579 638.926 614.688 638.926C620.799 638.926 626.519 642.258 630.726 647.185C634.933 652.111 637.578 658.578 637.578 664.74Z" fill="white" stroke="black"/>
<mask id="path-82-inside-1_0_1" fill="white">
<path fill-rule="evenodd" clip-rule="evenodd" d="M607.115 649.777C605.643 647.231 603.156 645.537 600.325 645.472C603.974 641.737 609.107 639.011 614.95 639.011C621.524 639.011 627.172 642.463 630.82 646.92C630.118 646.677 629.375 646.547 628.606 646.547C626.22 646.547 624.084 647.801 622.651 649.777H607.115Z"/>
</mask>
<path fill-rule="evenodd" clip-rule="evenodd" d="M607.115 649.777C605.643 647.231 603.156 645.537 600.325 645.472C603.974 641.737 609.107 639.011 614.95 639.011C621.524 639.011 627.172 642.463 630.82 646.92C630.118 646.677 629.375 646.547 628.606 646.547C626.22 646.547 624.084 647.801 622.651 649.777H607.115Z" fill="black"/>
<path d="M607.115 649.777L606.249 650.278L606.538 650.777H607.115V649.777ZM600.325 645.473L599.61 644.774L598.002 646.42L600.302 646.472L600.325 645.473ZM630.82 646.92L630.494 647.865L633.831 649.02L631.594 646.287L630.82 646.92ZM622.651 649.777V650.777H623.162L623.461 650.364L622.651 649.777ZM607.981 649.277C606.365 646.482 603.586 644.547 600.348 644.473L600.302 646.472C602.727 646.528 604.921 647.98 606.249 650.278L607.981 649.277ZM601.04 646.171C604.54 642.589 609.427 640.011 614.95 640.011V638.011C608.787 638.011 603.408 640.886 599.61 644.774L601.04 646.171ZM614.95 640.011C621.163 640.011 626.546 643.277 630.047 647.554L631.594 646.287C627.798 641.65 621.885 638.011 614.95 638.011V640.011ZM631.147 645.975C630.343 645.697 629.489 645.547 628.606 645.547V647.547C629.261 647.547 629.894 647.658 630.494 647.865L631.147 645.975ZM628.606 645.547C625.85 645.547 623.431 646.998 621.842 649.191L623.461 650.364C624.737 648.605 626.59 647.547 628.606 647.547V645.547ZM607.115 650.777H622.651V648.777H607.115V650.777Z" fill="black" mask="url(#path-82-inside-1_0_1)"/>
<ellipse cx="642.607" cy="580.275" rx="9.79757" ry="10.7296" transform="rotate(23.8572 642.607 580.275)" fill="black"/>
<path d="M653.867 601.586C653.867 624.193 635.541 642.519 612.934 642.519C590.327 642.519 572 624.193 572 601.586C572 594.54 574.246 580.185 578.432 575.856C582.632 571.514 588.78 577.202 594.221 573.517C600.762 569.087 608.532 567.669 617.027 567.669C639.634 567.669 653.867 578.979 653.867 601.586Z" fill="white"/>
<path d="M653.867 601.586C653.867 624.193 635.541 642.519 612.934 642.519C590.327 642.519 572 624.193 572 601.586C572 594.54 574.246 580.185 578.432 575.856C582.632 571.514 588.78 577.202 594.221 573.517C600.762 569.087 608.532 567.669 617.027 567.669C639.634 567.669 653.867 578.979 653.867 601.586Z" fill="white"/>
<path d="M594.221 573.517C600.762 569.087 608.532 567.669 617.027 567.669C639.634 567.669 653.867 578.979 653.867 601.586C653.867 624.193 635.541 642.519 612.934 642.519C590.327 642.519 572 624.193 572 601.586C572 594.54 574.246 580.185 578.432 575.856M594.221 573.517C588.78 577.202 582.632 571.514 578.432 575.856M594.221 573.517L578.432 575.856" stroke="black"/>
<path fill-rule="evenodd" clip-rule="evenodd" d="M576.058 580.294C576.789 578.553 577.617 577.113 578.539 576.159C580.69 573.935 583.353 574.343 586.17 574.774C587.347 574.955 588.551 575.139 589.757 575.137C589.357 576.948 587.463 579.052 584.733 580.48C581.013 582.426 577.147 582.38 576.099 580.377C576.085 580.349 576.071 580.322 576.058 580.294Z" fill="black"/>
<ellipse cx="635.591" cy="571.206" rx="8.91537" ry="11.3723" transform="rotate(11.2493 635.591 571.206)" fill="black"/>
<ellipse cx="614.688" cy="653.63" rx="8.77148" ry="9.94101" fill="black"/>
<path d="M627.93 679.98C627.93 683.151 621.438 683.199 613.713 683.199C605.987 683.199 599.954 683.151 599.954 679.98C599.954 676.809 610.133 674.256 617.859 674.256C625.584 674.256 627.93 676.809 627.93 679.98Z" fill="black"/>
<ellipse cx="598.959" cy="604.315" rx="9.59141" ry="4.98753" transform="rotate(15.7759 598.959 604.315)" fill="#FFEADE"/>
<path d="M598.27 578.989C605.141 573.257 611.668 571.536 615.746 579.184C619.824 586.832 618.282 598.099 610.634 602.177C602.985 606.255 596.614 604.585 592.536 596.936C590.625 592.578 591.669 589.963 592.923 586.803C593.982 584.135 595.414 582.166 598.27 578.989Z" fill="black"/>
<circle cx="605.332" cy="584.628" r="2.92383" fill="white"/>
<path d="M701.506 592.005L703.142 592.243M743.353 568.444L733.573 600.18C733.283 601.122 732.349 601.713 731.374 601.571L708.288 598.212C705.073 597.744 702.229 595.879 700.519 593.115L699.666 591.738L711.555 560.63C711.895 559.74 712.815 559.214 713.754 559.371L738.179 563.465C739.386 563.667 740.13 564.895 739.75 566.058L739.17 567.836M703.142 592.243L729.927 596.14L739.17 567.836M703.142 592.243L704.945 595.638L731.232 600.088L741.126 570.835L739.17 567.836" stroke="#9EB81D" stroke-width="0.3" stroke-linecap="round"/>
<path d="M709.536 594.218L706.878 593.831C705.995 597.038 705.371 600.311 705.015 603.618L704.952 604.199L706.829 601.341L708.019 604.646L708.033 604.44C708.266 600.999 708.769 597.581 709.536 594.218Z" fill="#9EB81D"/>
<path d="M684.306 483.01V483.01C686.128 484.5 687.457 486.505 688.121 488.762L688.612 490.433C689.289 492.732 690.531 494.825 692.225 496.52L692.692 496.987" stroke="#9EB81D" stroke-width="0.3" stroke-linecap="round"/>
<path d="M682.019 484.789V484.789C683.84 486.279 685.17 488.283 685.834 490.541L686.325 492.212C687.002 494.511 688.244 496.604 689.938 498.298L690.405 498.765" stroke="#9EB81D" stroke-width="0.3" stroke-linecap="round"/>
<path d="M679.478 486.822V486.822C681.299 488.312 682.629 490.316 683.292 492.574L683.784 494.245C684.46 496.544 685.703 498.637 687.397 500.331L687.864 500.798" stroke="#9EB81D" stroke-width="0.3" stroke-linecap="round"/>
<path d="M676.429 488.855V488.855C678.25 490.345 679.579 492.349 680.243 494.607L680.735 496.278C681.411 498.577 682.653 500.67 684.348 502.364L684.815 502.831" stroke="#9EB81D" stroke-width="0.3" stroke-linecap="round"/>
<path d="M682.273 479.706V479.706C680.992 477.143 678.591 475.321 675.777 474.777L675.686 474.759C673.482 474.332 671.353 473.584 669.367 472.539L667.534 471.574" stroke="#9EB81D" stroke-width="0.3" stroke-linecap="round"/>
<path d="M679.986 482.248V482.248C678.705 479.684 676.304 477.862 673.49 477.318L673.399 477.3C671.195 476.874 669.066 476.126 667.08 475.08L665.247 474.116" stroke="#9EB81D" stroke-width="0.3" stroke-linecap="round"/>
<path d="M676.937 483.772V483.772C675.655 481.209 673.255 479.387 670.441 478.842L670.35 478.825C668.146 478.398 666.017 477.65 664.03 476.605L662.198 475.64" stroke="#9EB81D" stroke-width="0.3" stroke-linecap="round"/>
<path d="M674.396 486.313V486.313C673.114 483.75 670.713 481.928 667.9 481.384L667.808 481.366C665.605 480.94 663.476 480.192 661.489 479.146L659.657 478.182" stroke="#9EB81D" stroke-width="0.3" stroke-linecap="round"/>
<path d="M667.026 468.271L667.788 467.508L671.309 469.445C672.347 470.015 673.448 470.461 674.591 470.773L678.788 471.918C682.146 472.833 684.973 475.102 686.593 478.182V478.182V478.182C689.081 480.006 690.986 482.513 692.076 485.399L693.665 489.605C694.367 491.464 695.367 493.197 696.626 494.735L697.012 495.208L683.544 508.676L680.289 504.156C679.421 502.95 678.84 501.562 678.59 500.097L678.047 496.92C677.547 493.989 675.078 491.799 672.109 491.65V491.65M667.026 468.271L652.795 480.977L657.269 483.621C658.012 484.06 658.792 484.433 659.6 484.736L661.584 485.48C663.505 486.2 665.531 486.604 667.581 486.674V486.674C669.999 486.758 671.952 488.676 672.079 491.092L672.109 491.65M667.026 468.271L666.662 467.815C666.306 467.371 665.652 467.312 665.223 467.687L650 480.977L671.092 493.175L682.528 511.217L695.996 497.495L695.644 496.576M672.109 491.65L686.593 478.29" stroke="#9EB81D" stroke-width="0.3" stroke-linecap="round"/>
<path d="M673.633 494.445V494.445C675.222 495.081 676.392 496.464 676.756 498.136L676.927 498.925C677.27 500.5 677.887 502.004 678.749 503.366L682.273 508.93" stroke="#9EB81D" stroke-width="0.3" stroke-linecap="round"/>
<path d="M670.827 491.454V491.454C670.519 489.84 669.233 488.592 667.611 488.331L665.478 487.989C663.812 487.721 662.207 487.163 660.734 486.34L654.32 482.756" stroke="#9EB81D" stroke-width="0.3" stroke-linecap="round"/>
<path d="M631.794 512.585C631.17 512.899 630.929 513.671 631.278 514.275V514.275C631.58 514.798 632.223 515.015 632.774 514.77C635.11 513.73 637.371 512.525 639.537 511.165L639.971 510.893L636.99 511.153L638.615 508.544L638.466 508.646C636.332 510.107 634.103 511.423 631.794 512.585Z" fill="#9EB81D"/>
<path d="M594.601 503.897L621.499 493.491C622.418 493.135 623.459 493.502 623.952 494.356L633.73 511.291C635.355 514.105 635.652 517.494 634.542 520.548L634.277 521.278L606.663 529.911C605.754 530.195 604.771 529.799 604.313 528.964L594.125 510.404C593.536 509.331 594.039 507.986 595.187 507.564L596.45 507.1M633.463 519.869L632.74 518.616M632.74 518.616L620.899 498.107L596.45 507.1M632.74 518.616L634.094 515.538L622.904 495.071L597.45 504.131L596.45 507.1M638.615 508.544L636.99 511.153L639.971 510.893L639.537 511.165C637.371 512.525 635.11 513.73 632.774 514.77C632.223 515.015 631.58 514.798 631.278 514.275V514.275C630.929 513.671 631.17 512.899 631.794 512.585C634.103 511.423 636.332 510.107 638.466 508.646L638.615 508.544Z" stroke="#9EB81D" stroke-width="0.5" stroke-linecap="round"/>
<path d="M694.206 641.701L700.611 630.956" stroke="#9EB81D" stroke-width="0.3" stroke-linecap="round"/>
<path d="M695.239 646.453L701.645 635.708" stroke="#9EB81D" stroke-width="0.3" stroke-linecap="round"/>
<path d="M696.479 651.412L702.884 640.667" stroke="#9EB81D" stroke-width="0.3" stroke-linecap="round"/>
<path d="M697.306 656.371L703.711 645.626" stroke="#9EB81D" stroke-width="0.3" stroke-linecap="round"/>
<path d="M680.363 637.775L690.9 642.32" stroke="#9EB81D" stroke-width="0.3" stroke-linecap="round"/>
<path d="M681.189 642.734L691.727 647.279" stroke="#9EB81D" stroke-width="0.3" stroke-linecap="round"/>
<path d="M682.842 647.279L693.38 651.825" stroke="#9EB81D" stroke-width="0.3" stroke-linecap="round"/>
<path d="M683.669 651.825L694.206 656.371" stroke="#9EB81D" stroke-width="0.3" stroke-linecap="round"/>
<path d="M701.438 667.322L710.529 649.346M710.529 649.346L707.843 648.932L700.14 663.623C699.718 664.427 698.528 664.298 698.289 663.422L691.52 638.601L699.785 624.964M710.529 649.346L702.678 624.964H699.785M699.785 624.964L706.81 646.659" stroke="#9EB81D" stroke-width="0.3"/>
<path d="M698.441 668.768L678.916 661.123M678.916 661.123L680.982 657.817L696.524 664.893C697.291 665.243 698.12 664.544 697.905 663.729L691.246 638.427L676.437 632.196M678.916 661.123L674.371 636.742L676.437 632.196M676.437 632.196L680.982 655.338" stroke="#9EB81D" stroke-width="0.3"/>
<path d="M486.292 601.058V601.058C488.632 598.992 491.541 597.679 494.639 597.292L496.933 597.005C500.088 596.61 503.094 595.431 505.674 593.574L506.386 593.062" stroke="#9EB81D" stroke-width="0.3" stroke-linecap="round"/>
<path d="M488.133 604.433V604.433C490.473 602.366 493.382 601.054 496.48 600.667L498.774 600.38C501.929 599.985 504.934 598.806 507.515 596.949L508.226 596.437" stroke="#9EB81D" stroke-width="0.3" stroke-linecap="round"/>
<path d="M490.252 608.195V608.195C492.593 606.128 495.502 604.816 498.599 604.429L500.893 604.142C504.048 603.747 507.054 602.568 509.635 600.711L510.346 600.199" stroke="#9EB81D" stroke-width="0.3" stroke-linecap="round"/>
<path d="M492.263 612.622V612.622C494.603 610.556 497.512 609.243 500.61 608.856L502.904 608.569C506.059 608.175 509.065 606.995 511.646 605.138L512.357 604.626" stroke="#9EB81D" stroke-width="0.3" stroke-linecap="round"/>
<path d="M481.532 603.015V603.015C477.901 604.145 475.003 606.9 473.689 610.468L473.646 610.584C472.617 613.378 471.183 616.007 469.39 618.385L467.735 620.578" stroke="#9EB81D" stroke-width="0.3" stroke-linecap="round"/>
<path d="M484.371 606.552V606.552C480.741 607.683 477.842 610.438 476.528 614.006L476.486 614.121C475.456 616.916 474.022 619.544 472.229 621.922L470.574 624.116" stroke="#9EB81D" stroke-width="0.3" stroke-linecap="round"/>
<path d="M485.716 610.871V610.871C482.086 612.002 479.188 614.757 477.873 618.325L477.831 618.44C476.802 621.235 475.367 623.863 473.574 626.241L471.92 628.435" stroke="#9EB81D" stroke-width="0.3" stroke-linecap="round"/>
<path d="M488.501 614.742V614.742C484.871 615.872 481.972 618.627 480.658 622.195L480.616 622.311C479.586 625.105 478.152 627.734 476.359 630.112L474.704 632.305" stroke="#9EB81D" stroke-width="0.3" stroke-linecap="round"/>
<path d="M463.3 620.538L462.465 619.377L466.112 614.722C466.842 613.79 467.459 612.774 467.951 611.697L470.887 605.26C472.613 601.477 475.832 598.579 479.776 597.26L480.458 597.032V597.032C483.378 594.164 487.068 592.206 491.08 591.394L497.14 590.169C499.584 589.675 501.931 588.787 504.09 587.539L504.979 587.025L519.739 607.539L513.124 610.835C511.36 611.714 509.418 612.179 507.447 612.194L503.171 612.225C499.226 612.255 495.83 615.019 495.001 618.877V618.877M463.3 620.538L476.899 641.887L481.317 636.593C482.051 635.714 482.706 634.773 483.275 633.779L484.673 631.34C486.027 628.978 486.988 626.413 487.518 623.743V623.743C488.144 620.594 491.073 618.446 494.264 618.796L495.001 618.877M463.3 620.538L462.329 621.086C461.833 621.365 461.67 622.001 461.971 622.485L476.302 645.548L496.78 620.533L522.85 609.412L507.757 588.845L506.479 589.109M495.001 618.877L480.601 597.055" stroke="#9EB81D" stroke-width="0.3" stroke-linecap="round"/>
<path d="M498.987 617.477V617.477C500.159 615.532 502.22 614.295 504.487 614.176L505.557 614.12C507.693 614.008 509.793 613.522 511.761 612.683L519.801 609.257" stroke="#9EB81D" stroke-width="0.3" stroke-linecap="round"/>
<path d="M494.47 620.513V620.513C492.291 620.572 490.382 621.989 489.695 624.058L488.79 626.777C488.084 628.901 487.01 630.885 485.618 632.637L479.555 640.271" stroke="#9EB81D" stroke-width="0.3" stroke-linecap="round"/>
<path d="M131.791 266.497V266.497C137.581 269.495 142.34 274.16 145.453 279.889L147.826 284.255C151.023 290.137 155.633 295.13 161.241 298.786L162.723 299.751" stroke="#9EB81D" stroke-opacity="0.15" stroke-linecap="round"/>
<path d="M126.716 272.711V272.711C132.506 275.71 137.265 280.374 140.378 286.103L142.752 290.469C145.948 296.351 150.559 301.344 156.167 305L157.648 305.965" stroke="#9EB81D" stroke-opacity="0.15" stroke-linecap="round"/>
<path d="M121.111 279.77V279.77C126.901 282.769 131.66 287.433 134.773 293.162L137.147 297.528C140.343 303.41 144.954 308.403 150.562 312.059L152.043 313.024" stroke="#9EB81D" stroke-opacity="0.15" stroke-linecap="round"/>
<path d="M114.141 287.13V287.13C119.931 290.128 124.689 294.793 127.803 300.522L130.176 304.888C133.373 310.77 137.983 315.763 143.591 319.418L145.073 320.384" stroke="#9EB81D" stroke-opacity="0.15" stroke-linecap="round"/>
<path d="M124.343 258.667V258.667C119.361 252.42 111.725 248.857 103.737 249.033V249.033C97.5288 249.17 91.3183 248.382 85.3426 246.694L79.8569 245.145" stroke="#9EB81D" stroke-opacity="0.15" stroke-linecap="round"/>
<path d="M119.726 266.966V266.966C114.744 260.718 107.109 257.155 99.1199 257.331V257.331C92.912 257.468 86.7015 256.68 80.7258 254.992L75.2401 253.443" stroke="#9EB81D" stroke-opacity="0.15" stroke-linecap="round"/>
<path d="M112.451 272.935V272.935C107.469 266.688 99.833 263.125 91.8444 263.301V263.301C85.6364 263.438 79.426 262.65 73.4503 260.962L67.9646 259.413" stroke="#9EB81D" stroke-opacity="0.15" stroke-linecap="round"/>
<path d="M107.151 281.384V281.384C102.169 275.136 94.5336 271.573 86.5449 271.749V271.749C80.337 271.886 74.1266 271.098 68.1508 269.41L62.6652 267.861" stroke="#9EB81D" stroke-opacity="0.15" stroke-linecap="round"/>
<path d="M76.5054 236.414L78.0952 233.88L91.7022 237.996C92.8499 238.343 94.035 238.551 95.2323 238.616L118.768 239.894C122.935 240.12 126.819 242.072 129.487 245.28L135.032 251.947L136.46 252.592C143.309 255.689 149.118 260.699 153.187 267.019L163.414 282.907C164.752 284.986 166.417 286.835 168.343 288.384L173.259 292.336L145.173 337.112L131.77 324.91C129.989 323.289 128.598 321.287 127.699 319.054L123.123 307.687C120.143 300.286 112.418 295.952 104.55 297.268L104.215 297.324M76.5054 236.414L45.9125 279.557L60.2299 284.379C62.0186 284.982 63.8571 285.425 65.7239 285.703L72.1729 286.665C77.8044 287.505 83.536 287.41 89.1365 286.383V286.383C95.6389 285.19 101.974 289.167 103.725 295.542L104.215 297.324M76.5054 236.414L73.831 234.216C73.3861 233.85 72.7251 233.935 72.3868 234.401L38.4027 281.208L102.401 302.092L143.97 344.66L171.903 299.189L170.406 296.885M104.215 297.324L135.098 252.244" stroke="#9EB81D" stroke-opacity="0.15" stroke-linecap="round"/>
<path d="M109.992 304.065V304.065C114.645 304.864 118.6 307.914 120.555 312.212L121.55 314.399C123.407 318.482 125.959 322.211 129.092 325.421L141.912 338.558" stroke="#9EB81D" stroke-opacity="0.15" stroke-linecap="round"/>
<path d="M100.654 297.544V297.544C98.8571 293.32 94.6033 290.666 90.0304 290.915L84.2424 291.23C79.58 291.484 74.9043 290.904 70.4347 289.519L51.0779 283.519" stroke="#9EB81D" stroke-opacity="0.15" stroke-linecap="round"/>
<g style="mix-blend-mode:multiply" opacity="0.2">
<g style="mix-blend-mode:multiply" opacity="0.2">
<path d="M611.55 391.896C611.522 391.845 611.51 391.79 611.504 391.729L611.629 391.986C611.599 391.956 611.57 391.931 611.55 391.896ZM615.801 400.767C615.791 400.746 615.789 400.72 615.782 400.697C615.772 400.675 615.774 400.649 615.77 400.626L615.88 400.857C615.852 400.83 615.821 400.802 615.801 400.767ZM620.055 409.641C620.027 409.59 620.013 409.533 620.009 409.474L620.133 409.731C620.104 409.701 620.074 409.676 620.055 409.641ZM624.635 419.196C624.623 419.177 624.623 419.153 624.615 419.134C624.605 419.108 624.601 419.081 624.601 419.053L624.71 419.286C624.682 419.259 624.653 419.23 624.635 419.196ZM629.081 428.478C629.062 428.438 629.052 428.397 629.046 428.356C629.044 428.346 629.046 428.336 629.044 428.33L629.16 428.568C629.132 428.54 629.101 428.513 629.081 428.478ZM633.465 437.621C633.437 437.571 633.423 437.514 633.419 437.455L633.541 437.714C633.512 437.684 633.484 437.657 633.465 437.621Z" fill="white"/>
</g>
</g>
<path d="M655.349 351.296L658.163 358.452L654.427 355.675L651.068 348.662L655.349 351.296Z" fill="white" stroke="#F1F5DC" stroke-width="0.5"/>
<path d="M723.354 327.921L658.834 358.841L616.988 271.526L642.989 259.065L643.014 259.053L643.036 259.035C643.075 259.004 643.118 258.974 643.167 258.94L643.181 258.931C643.218 258.905 643.26 258.876 643.301 258.845L680.556 240.994C683.274 240.269 686.152 241.484 687.364 244.01L724.468 321.43C725.523 323.631 725.002 326.193 723.354 327.921Z" fill="white" stroke="#F1F5DC" stroke-width="0.5"/>
<path d="M721.978 326.656L657.457 357.58L615.612 270.261L641.613 257.8L641.638 257.788L641.66 257.77C641.716 257.726 641.77 257.689 641.83 257.647C641.859 257.627 641.889 257.607 641.921 257.584L679.178 239.727C681.896 239.006 684.778 240.221 685.987 242.745L686.202 242.642L685.987 242.745L723.09 320.167L723.09 320.167C724.145 322.365 723.626 324.928 721.978 326.656Z" fill="white" stroke="#F1F5DC" stroke-width="0.5"/>
<path d="M718.867 324.585L654.347 355.505L612.503 268.192L638.504 255.731L638.532 255.717L638.556 255.698C638.619 255.646 638.686 255.6 638.765 255.546C638.78 255.535 638.796 255.525 638.812 255.514L676.069 237.658C678.785 236.935 681.669 238.149 682.88 240.674C682.88 240.674 682.88 240.674 682.88 240.674L719.983 318.096L719.983 318.096C721.038 320.294 720.517 322.859 718.867 324.585Z" fill="white" stroke="#F1F5DC" stroke-width="0.5"/>
<path d="M721.622 326.826L657.361 357.626L654.733 355.874L718.995 325.078L721.622 326.826Z" fill="white" stroke="#F1F5DC" stroke-width="0.5"/>
<path d="M620.498 285.824C620.419 285.86 620.329 285.876 620.237 285.862C620.154 285.85 619.42 285.722 619.074 285.099C618.84 284.681 618.851 284.175 619.101 283.594M620.498 285.824C620.629 285.759 620.727 285.637 620.75 285.48C620.789 285.237 620.622 285.004 620.375 284.961M620.498 285.824L620.387 285.6C620.388 285.6 620.389 285.599 620.391 285.598M620.498 285.824L620.395 285.596C620.393 285.597 620.392 285.598 620.391 285.598M620.375 284.961C620.271 284.948 619.976 284.858 619.87 284.654M620.375 284.961L620.342 285.209C620.34 285.209 620.338 285.208 620.335 285.208M620.375 284.961L620.332 285.207C620.333 285.208 620.334 285.208 620.335 285.208M619.87 284.654C619.767 284.474 619.832 284.212 619.914 284.008C620.018 283.888 620.39 283.503 620.915 283.447M619.87 284.654L619.652 284.777C619.652 284.776 619.651 284.775 619.65 284.773M619.87 284.654L619.648 284.769C619.649 284.771 619.649 284.772 619.65 284.773M620.915 283.447C621.345 283.402 621.799 283.587 622.27 283.998C622.459 284.163 622.743 284.145 622.912 283.956M620.915 283.447L620.889 283.199C621.414 283.143 621.935 283.374 622.435 283.81C622.518 283.883 622.645 283.877 622.723 283.792M620.915 283.447L619.325 283.705M622.912 283.956C623.076 283.764 623.056 283.477 622.868 283.313M622.912 283.956L622.725 283.79C622.725 283.79 622.724 283.791 622.723 283.792M622.912 283.956L622.722 283.794C622.722 283.793 622.723 283.792 622.723 283.792M622.868 283.313C622.194 282.727 621.502 282.469 620.808 282.545M622.868 283.313L622.703 283.501C622.703 283.501 622.703 283.501 622.703 283.501M622.868 283.313L622.704 283.501C622.704 283.501 622.703 283.501 622.703 283.501M620.808 282.545C619.797 282.656 619.185 283.46 619.154 283.501L619.154 283.501M620.808 282.545L620.835 282.793C620.835 282.793 620.835 282.793 620.835 282.793M620.808 282.545L620.835 282.793M619.154 283.501L619.101 283.594M619.154 283.501L619.352 283.653L619.352 283.653C619.354 283.651 619.357 283.647 619.362 283.641M619.154 283.501L619.371 283.626L619.362 283.641M619.101 283.594L619.318 283.718L619.325 283.705M619.101 283.594L619.33 283.693C619.328 283.697 619.327 283.701 619.325 283.705M619.325 283.705L619.362 283.641M619.325 283.705C619.1 284.235 619.109 284.651 619.292 284.976L619.292 284.977C619.432 285.228 619.653 285.386 619.861 285.483C620.068 285.581 620.247 285.611 620.272 285.614L620.273 285.615L620.273 285.615C620.312 285.62 620.353 285.614 620.391 285.598M619.325 283.705L619.65 284.773M619.362 283.641C619.441 283.54 619.985 282.887 620.835 282.793M620.835 282.793C621.442 282.727 622.066 282.948 622.703 283.501M622.703 283.501C622.786 283.574 622.798 283.702 622.723 283.792M620.391 285.598C620.452 285.567 620.493 285.512 620.503 285.444L620.503 285.441L620.503 285.441C620.52 285.336 620.448 285.229 620.335 285.208M620.335 285.208C620.255 285.197 620.132 285.163 620.012 285.103C619.891 285.043 619.739 284.94 619.65 284.773" fill="white" stroke="#F1F5DC" stroke-width="0.5"/>
<path d="M624.643 294.469L624.643 294.469L624.638 294.471C624.607 294.487 624.569 294.494 624.528 294.487L624.528 294.487L624.522 294.486C624.497 294.483 624.319 294.453 624.112 294.356C623.905 294.259 623.684 294.101 623.543 293.849C623.363 293.522 623.351 293.105 623.577 292.58L623.615 292.514C623.69 292.418 624.233 291.759 625.086 291.665C625.693 291.599 626.319 291.821 626.954 292.373C627.04 292.449 627.047 292.578 626.977 292.661C626.896 292.75 626.769 292.754 626.685 292.682L626.685 292.682C626.187 292.248 625.667 292.017 625.141 292.07L625.141 292.07C624.512 292.135 624.087 292.588 623.975 292.716L623.948 292.748L623.932 292.787C623.887 292.901 623.842 293.04 623.825 293.183C623.809 293.324 623.815 293.493 623.898 293.647C623.989 293.814 624.144 293.916 624.263 293.975C624.387 294.036 624.509 294.069 624.578 294.082L624.578 294.082L624.584 294.083C624.697 294.102 624.772 294.21 624.754 294.315L624.754 294.315L624.754 294.319C624.743 294.388 624.699 294.443 624.643 294.469Z" fill="white" stroke="#F1F5DC" stroke-width="0.5"/>
<path d="M628.895 303.343C628.858 303.359 628.818 303.365 628.779 303.36C628.743 303.354 628.567 303.323 628.364 303.228C628.157 303.131 627.936 302.974 627.797 302.722L627.796 302.722C627.614 302.396 627.604 301.981 627.828 301.453L627.867 301.387C627.883 301.367 628.022 301.186 628.266 300.995C628.526 300.791 628.891 300.587 629.339 300.539L629.339 300.539C629.946 300.472 630.571 300.693 631.206 301.244C631.293 301.32 631.301 301.449 631.226 301.535C631.15 301.621 631.024 301.629 630.939 301.555L630.939 301.555C630.441 301.121 629.919 300.888 629.392 300.942L629.392 300.942L629.391 300.942C628.766 301.008 628.34 301.458 628.226 301.593L628.201 301.624L628.186 301.66C628.141 301.773 628.096 301.912 628.078 302.055C628.061 302.194 628.067 302.363 628.152 302.516C628.241 302.683 628.394 302.786 628.513 302.846C628.637 302.908 628.761 302.942 628.835 302.955L628.835 302.955L628.838 302.955C628.947 302.972 629.025 303.077 629.008 303.19C628.996 303.257 628.954 303.313 628.895 303.343Z" fill="white" stroke="#F1F5DC" stroke-width="0.5"/>
<path d="M633.472 312.899L633.471 312.899C633.44 312.914 633.402 312.921 633.361 312.914L633.361 312.914L633.355 312.913C633.33 312.91 633.152 312.881 632.945 312.783C632.738 312.686 632.516 312.528 632.376 312.276L632.375 312.276C632.195 311.952 632.184 311.535 632.407 311.007L632.446 310.943C632.513 310.856 633.059 310.187 633.919 310.093C634.525 310.026 635.152 310.249 635.787 310.8C635.872 310.875 635.881 311.005 635.808 311.09C635.729 311.177 635.601 311.182 635.52 311.111C635.019 310.674 634.498 310.447 633.975 310.498L633.975 310.498L633.973 310.498C633.345 310.562 632.92 311.014 632.807 311.149L632.782 311.179L632.767 311.216C632.722 311.329 632.677 311.468 632.659 311.61C632.642 311.75 632.648 311.92 632.731 312.074C632.821 312.24 632.975 312.343 633.095 312.402C633.218 312.464 633.342 312.498 633.416 312.511L633.417 312.511C633.53 312.529 633.605 312.637 633.587 312.742L633.587 312.742L633.586 312.746C633.576 312.812 633.532 312.869 633.472 312.899Z" fill="white" stroke="#F1F5DC" stroke-width="0.5"/>
<path d="M638.446 320.029C637.919 320.083 637.549 320.47 637.445 320.59M638.446 320.029C638.876 319.983 639.332 320.171 639.801 320.58C639.99 320.745 640.276 320.724 640.443 320.538M638.446 320.029L638.421 319.78C637.792 319.845 637.367 320.298 637.256 320.426L637.228 320.458L637.213 320.497C637.167 320.61 637.122 320.749 637.105 320.892C637.089 321.032 637.095 321.201 637.181 321.355M638.446 320.029L637.181 321.355M637.445 320.59L640.443 320.538M637.445 320.59C637.363 320.794 637.298 321.055 637.401 321.236C637.507 321.439 637.801 321.529 637.907 321.545M637.445 320.59L637.181 321.355M640.443 320.538L640.256 320.371C640.256 320.372 640.255 320.373 640.254 320.373C640.254 320.374 640.253 320.375 640.253 320.375L640.443 320.538ZM637.181 321.355C637.27 321.522 637.422 321.625 637.543 321.685C637.667 321.746 637.792 321.781 637.871 321.792L637.907 321.545M637.907 321.545C638.153 321.586 638.322 321.821 638.281 322.066C638.258 322.219 638.158 322.343 638.029 322.406M637.907 321.545L637.866 321.791C637.976 321.81 638.053 321.917 638.035 322.025L638.035 322.025L638.034 322.028C638.024 322.093 637.982 322.15 637.922 322.18M638.029 322.406L637.926 322.178C637.925 322.179 637.923 322.179 637.922 322.18M638.029 322.406C637.95 322.441 637.86 322.457 637.768 322.444C637.685 322.432 636.953 322.306 636.607 321.682C636.373 321.265 636.382 320.757 636.632 320.175L638.029 322.406ZM637.922 322.18C637.884 322.196 637.844 322.202 637.804 322.196L637.804 322.196L637.803 322.196C637.777 322.193 637.6 322.163 637.392 322.066C637.185 321.969 636.965 321.812 636.825 321.561L636.825 321.56C636.642 321.234 636.631 320.817 636.855 320.29M637.922 322.18L636.855 320.29M636.855 320.29L636.896 320.222C636.896 320.222 636.896 320.222 636.896 320.222C636.91 320.203 637.049 320.023 637.294 319.831C637.554 319.628 637.918 319.424 638.366 319.375L636.855 320.29ZM640.234 320.083C640.234 320.083 640.235 320.083 640.235 320.083L640.399 319.894L640.234 320.083C640.234 320.083 640.234 320.083 640.234 320.083Z" fill="white" stroke="#F1F5DC" stroke-width="0.5"/>
<path d="M641.207 330.704L641.206 330.702C641.024 330.377 641.013 329.96 641.236 329.432L641.275 329.368C641.342 329.282 641.888 328.612 642.749 328.52L642.75 328.519C643.357 328.453 643.981 328.674 644.618 329.227C644.702 329.3 644.71 329.43 644.639 329.513C644.557 329.603 644.431 329.607 644.349 329.536C643.849 329.1 643.329 328.869 642.803 328.925L642.83 329.173L642.805 328.925C642.177 328.989 641.75 329.439 641.637 329.569L641.609 329.601L641.593 329.642C641.549 329.755 641.505 329.893 641.488 330.036C641.472 330.175 641.478 330.344 641.563 330.497C641.652 330.665 641.804 330.768 641.924 330.828C642.048 330.89 642.172 330.923 642.246 330.936L642.287 330.689L642.245 330.935C642.361 330.956 642.434 331.062 642.416 331.167L642.416 331.167L642.416 331.171C642.405 331.239 642.362 331.295 642.306 331.324C642.268 331.34 642.228 331.346 642.189 331.341C642.152 331.335 641.976 331.304 641.773 331.209C641.566 331.112 641.346 330.955 641.207 330.704Z" fill="white" stroke="#F1F5DC" stroke-width="0.5"/>
<path d="M615.831 274.204L652.316 350.332L651.777 350.59L615.294 274.461L615.831 274.204Z" fill="white" stroke="#F1F5DC" stroke-width="0.5"/>
<path d="M624.269 282.002L624.269 282.001C623.895 281.22 622.961 280.89 622.178 281.265C621.398 281.641 621.07 282.574 621.444 283.355C621.817 284.136 622.752 284.466 623.535 284.091L624.269 282.002ZM624.269 282.002C624.644 282.781 624.313 283.717 623.535 284.091L624.269 282.002Z" fill="white" stroke="#F1F5DC" stroke-width="0.5"/>
<path d="M628.721 291.288C629.095 292.069 628.765 293.004 627.985 293.38C627.204 293.753 626.27 293.423 625.894 292.644C625.52 291.862 625.849 290.926 626.63 290.553C627.412 290.179 628.348 290.508 628.721 291.288Z" fill="white" stroke="#F1F5DC" stroke-width="0.5"/>
<path d="M633.172 300.578L633.172 300.578C633.547 301.357 633.217 302.295 632.436 302.669L632.435 302.669C631.657 303.044 630.72 302.713 630.347 301.931L630.346 301.931C629.971 301.152 630.301 300.214 631.082 299.84C631.862 299.468 632.798 299.797 633.172 300.578Z" fill="white" stroke="#F1F5DC" stroke-width="0.5"/>
<path d="M635.534 309.131L635.534 309.131C636.313 308.756 637.247 309.085 637.623 309.865C637.997 310.647 637.668 311.583 636.887 311.956C636.106 312.33 635.172 312 634.796 311.22C634.423 310.439 634.753 309.505 635.534 309.131Z" fill="white" stroke="#F1F5DC" stroke-width="0.5"/>
<path d="M642.074 319.154L642.074 319.154C642.449 319.937 642.119 320.872 641.338 321.245C640.556 321.619 639.624 321.291 639.25 320.51L639.25 320.509C638.875 319.726 639.203 318.794 639.984 318.42L639.985 318.42C640.764 318.045 641.7 318.373 642.074 319.154Z" fill="white" stroke="#F1F5DC" stroke-width="0.5"/>
<path d="M645.79 330.532L645.79 330.532C645.011 330.907 644.075 330.576 643.701 329.798C643.327 329.017 643.656 328.08 644.435 327.705C645.216 327.332 646.152 327.663 646.528 328.443C646.9 329.223 646.571 330.159 645.79 330.532Z" fill="white" stroke="#F1F5DC" stroke-width="0.5"/>
<path d="M622.723 283.792C622.798 283.702 622.786 283.574 622.703 283.501C622.066 282.948 621.442 282.728 620.835 282.794L622.723 283.792ZM622.723 283.792C622.645 283.877 622.518 283.883 622.434 283.81C621.934 283.374 621.414 283.143 620.888 283.199C620.263 283.265 619.837 283.715 619.724 283.845L619.697 283.876L619.681 283.915C619.677 283.926 619.673 283.936 619.669 283.947L619.465 283.521C619.667 283.302 620.148 282.869 620.835 282.794L622.723 283.792Z" fill="white" stroke="#F1F5DC" stroke-width="0.5"/>
<path d="M626.685 292.682L626.685 292.682C626.768 292.755 626.896 292.75 626.976 292.661C627.047 292.578 627.04 292.449 626.953 292.373C626.318 291.822 625.692 291.599 625.085 291.665L626.685 292.682ZM626.685 292.682C626.186 292.248 625.667 292.017 625.14 292.071L625.14 292.071M626.685 292.682L625.14 292.071M625.14 292.071C624.512 292.135 624.086 292.588 623.975 292.717L623.947 292.749M625.14 292.071L623.947 292.749M623.947 292.749L623.931 292.788M623.947 292.749L623.931 292.788M623.931 292.788C623.927 292.798 623.923 292.809 623.919 292.819M623.931 292.788L623.919 292.819M623.919 292.819L623.716 292.393C623.916 292.176 624.397 291.741 625.085 291.665L623.919 292.819Z" fill="white" stroke="#F1F5DC" stroke-width="0.5"/>
<path d="M630.939 301.555L630.939 301.555C631.024 301.629 631.15 301.621 631.226 301.535C631.301 301.449 631.293 301.32 631.206 301.244C630.571 300.693 629.947 300.472 629.339 300.538L630.939 301.555ZM630.939 301.555C630.441 301.121 629.919 300.888 629.393 300.942L629.393 300.942M630.939 301.555L629.393 300.942M629.393 300.942L629.391 300.942M629.393 300.942L629.391 300.942M629.391 300.942C628.766 301.008 628.34 301.457 628.226 301.593L628.202 301.622M629.391 300.942L628.202 301.622M628.202 301.622L628.187 301.657M628.202 301.622L628.187 301.657M628.187 301.657C628.182 301.669 628.178 301.681 628.173 301.693M628.187 301.657L628.173 301.693M628.173 301.693L627.969 301.266C628.172 301.047 628.653 300.614 629.339 300.538L628.173 301.693Z" fill="white" stroke="#F1F5DC" stroke-width="0.5"/>
<path d="M633.974 310.498L633.974 310.498L633.973 310.498C633.344 310.562 632.919 311.015 632.806 311.149L632.782 311.179L632.767 311.215C632.762 311.226 632.757 311.238 632.753 311.251L632.548 310.823C632.751 310.603 633.231 310.168 633.918 310.093C634.525 310.027 635.151 310.249 635.786 310.8C635.872 310.875 635.88 311.005 635.807 311.09C635.728 311.177 635.6 311.182 635.519 311.111C635.018 310.674 634.497 310.447 633.974 310.498Z" fill="white" stroke="#F1F5DC" stroke-width="0.5"/>
<path d="M639.965 320.392L639.965 320.392C639.468 319.959 638.945 319.725 638.419 319.781L638.446 320.03L638.421 319.781C637.792 319.845 637.367 320.298 637.255 320.427L637.228 320.459L637.212 320.497C637.208 320.508 637.204 320.518 637.2 320.529L636.997 320.104C637.196 319.887 637.678 319.451 638.366 319.376C638.973 319.31 639.599 319.532 640.234 320.084C640.318 320.158 640.329 320.284 640.254 320.374C640.177 320.458 640.048 320.465 639.965 320.392Z" fill="white" stroke="#F1F5DC" stroke-width="0.5"/>
<path d="M641.637 329.569L641.608 329.602L641.593 329.642C641.589 329.652 641.585 329.661 641.581 329.671L641.378 329.246C641.578 329.029 642.059 328.594 642.748 328.52L642.749 328.52C643.356 328.454 643.98 328.674 644.617 329.228C644.701 329.301 644.709 329.43 644.638 329.513C644.556 329.604 644.43 329.608 644.348 329.536C643.849 329.101 643.328 328.869 642.803 328.925L642.829 329.174L642.804 328.925C642.176 328.989 641.749 329.439 641.637 329.569Z" fill="white" stroke="#F1F5DC" stroke-width="0.5"/>
<path d="M681.743 250.184L690.033 267.48L634.761 293.97L626.473 276.672L681.743 250.184Z" fill="white" stroke="#F1F5DC" stroke-width="0.5"/>
<path d="M584.5 534.5L581.643 459.509C580.883 439.559 582.236 419.585 585.68 399.92L594.26 350.923C597.728 331.117 597.825 310.867 594.548 291.028L584.095 227.76C581.736 213.48 582.985 198.837 587.729 185.163L599.722 150.595C603.523 139.638 600.361 127.471 591.707 119.752V119.752C588.941 117.285 585.556 115.634 582.109 114.277C557.884 104.74 607.62 91.4344 601.5 106.5C595 122.5 566.084 97.3712 580.792 95.5C595.5 93.6288 610.5 79.9378 587.5 83.5C564.5 87.0622 584.279 76 584.279 76C584.279 76 596.645 67 584 61.5" stroke="#9EB81D" stroke-opacity="0.7" stroke-width="0.8"/>
</svg>
