<svg width="477" height="751" viewBox="0 0 477 751" fill="none" xmlns="http://www.w3.org/2000/svg">
<path d="M50 632C50 658.51 27.6147 680 -9.53674e-07 680C-27.6147 680 -50 658.51 -50 632C-50 605.49 -27.6147 584 -9.53674e-07 584C27.6147 584 50 605.49 50 632Z" stroke="#9EB81D" stroke-opacity="0.15"/>
<path d="M144 750L143.172 725.63C142.757 713.437 134.736 701.947 121.13 694.063L107.392 686.101C102.179 683.08 99.1621 678.647 99.1377 673.973C99.0896 664.76 111.407 656.526 122.759 661.484C133.455 666.156 136.564 673.794 135.834 681.654C134.865 692.074 118.655 697.415 103.641 695.538C82.8981 692.947 70.8647 677.979 78.7751 664.608L83.9544 655.854C91.326 643.394 77.0604 629.96 57.4586 630.904L55.0522 631.019C40.0311 631.741 27.6182 623.114 28.9132 612.852C29.8277 605.604 23.805 598.779 14.003 595.958L-14.3408 587.796L-77 567" stroke="#9EBB13" stroke-opacity="0.15"/>
<path d="M-11.0001 616.63C-11.0001 628.58 -0.916002 638.259 11.5134 638.259C23.9427 638.259 34.0269 628.58 34.0269 616.63C34.0269 604.679 23.9427 595 11.5134 595C-0.916002 595 -11.0001 604.679 -11.0001 616.63Z" fill="#9EBB13" fill-opacity="0.15" stroke="#9EBB13" stroke-opacity="0.15"/>
<path d="M92 354.5C92 395.038 59.1459 428 18.5 428C-22.1459 428 -55 395.038 -55 354.5C-55 313.962 -22.1459 281 18.5 281C59.1459 281 92 313.962 92 354.5Z" fill="white" fill-opacity="0.15" stroke="#9EBB13" stroke-opacity="0.15"/>
<path d="M64 298.5C64 305.946 57.7421 312 50 312C42.2579 312 36 305.946 36 298.5C36 291.054 42.2579 285 50 285C57.7421 285 64 291.054 64 298.5Z" fill="white" fill-opacity="0.15" stroke="#9EBB13" stroke-opacity="0.15"/>
<path d="M116.289 633.027L120.301 630.711M167.452 508.535L202.149 598.219C202.505 599.138 202.138 600.18 201.284 600.672L133.985 639.527C131.171 641.152 127.783 641.449 124.729 640.34L111.776 635.633L83.0445 543.732C82.7604 542.823 83.1563 541.84 83.991 541.382L151.098 504.545C152.17 503.957 153.515 504.46 153.937 505.608L157.193 514.458M120.301 630.711L186 592.78L157.193 514.458M120.301 630.711L130.161 635.048L195.725 599.201L166.702 517.66L157.193 514.458" stroke="#9EB81D" stroke-opacity="0.15" stroke-linecap="round"/>
<path d="M137.798 623.953L131.278 627.717L134.302 634.885C135.913 638.703 137.83 642.385 140.033 645.895L145.042 653.873L144.209 644.323L152.565 649.53L147.447 642.055C145.175 638.736 143.166 635.245 141.439 631.613L137.798 623.953Z" stroke="#9EB81D" stroke-opacity="0.15" stroke-linecap="round"/>
<path d="M356.827 113.306L361.411 113.973M474.11 47.2712L445.791 139.169C445.501 140.111 444.567 140.701 443.592 140.559L366.692 129.371C363.476 128.904 360.632 127.038 358.922 124.275L351.669 112.556L386.044 22.6138C386.384 21.7244 387.304 21.1979 388.243 21.3553L463.743 34.0085C464.949 34.2107 465.693 35.4389 465.313 36.6018L462.386 45.5657M361.411 113.973L436.483 124.895L462.386 45.5657M361.411 113.973L366.464 123.486L440.14 135.96L467.868 53.9707L462.386 45.5657" stroke="#9EB81D" stroke-opacity="0.15" stroke-linecap="round"/>
<path d="M379.333 119.506L371.883 118.423L369.816 125.923C368.716 129.919 367.939 133.996 367.495 138.117L366.485 147.482L371.747 139.47L375.081 148.733L375.693 139.694C375.965 135.682 376.551 131.697 377.446 127.776L379.333 119.506Z" stroke="#9EB81D" stroke-opacity="0.15" stroke-linecap="round"/>
<path d="M-4 107.234L25.9663 117.699C40.9602 122.935 57.478 121.505 71.3485 113.769L85.3553 105.958C90.6711 102.993 97.0189 102.506 102.725 104.625V104.625C113.97 108.802 120.152 122.843 110.554 130.039C101.508 136.821 91.2243 135.917 81.87 131.709C69.4727 126.132 68.0383 110.171 75.0255 98.51V98.51C84.6797 82.3985 106.694 79.2154 120.517 91.9325L129.565 100.257C142.446 112.108 163.289 106.362 168.277 89.5841L168.925 87.4042C172.729 74.6106 187.061 68.24 199.106 73.9891V73.9891C207.701 78.0914 217.966 76.1172 224.426 69.1194L243 49L279 1" stroke="black" stroke-width="0.2"/>
<path d="M0 107.234L29.9663 117.699C44.9602 122.935 61.478 121.505 75.3485 113.769L89.3553 105.958C94.6711 102.993 101.019 102.506 106.725 104.625V104.625C117.97 108.802 124.152 122.843 114.554 130.039C105.508 136.821 95.2243 135.917 85.87 131.709C73.4727 126.132 72.0383 110.171 79.0255 98.51V98.51C88.6797 82.3985 110.694 79.2154 124.517 91.9325L133.565 100.257C146.446 112.108 167.289 106.362 172.277 89.5841L172.95 87.3201C176.741 74.5707 191.024 68.2221 203.027 73.9513V73.9513C211.654 78.0688 221.96 76.041 228.384 68.9622L246.5 49L283 1" stroke="#9EB81D" stroke-width="0.8"/>
<path d="M206.756 68.1395L206.902 67.4729L208.063 63.8237C208.368 62.8662 209.36 62.3062 210.337 62.5401L213.914 63.3962C216.513 64.2905 218.72 66.0605 220.158 68.403L220.711 69.3042L221.902 71.311L209.843 78.432L208.763 76.4105L207.23 73.7274C206.511 71.9554 206.346 70.0072 206.756 68.1395Z" fill="white"/>
<path d="M206.902 67.4729L206.756 68.1395C206.346 70.0072 206.511 71.9554 207.23 73.7274V73.7274L208.763 76.4105M206.902 67.4729L208.063 63.8237C208.368 62.8662 209.36 62.3062 210.337 62.5401L213.914 63.3962M206.902 67.4729L213.914 63.3962M208.763 76.4105L220.711 69.3043M208.763 76.4105L209.843 78.432L221.902 71.311L220.711 69.3043M220.711 69.3043L220.158 68.403C218.72 66.0605 216.513 64.2905 213.914 63.3962V63.3962" stroke="#9EB81D" stroke-width="0.8"/>
<path d="M221.903 71.3104L209.866 78.6461L210.487 80.6416C210.941 82.1018 211.13 83.6316 211.044 85.1584L210.842 88.7559C210.539 94.1402 213.586 99.1542 218.504 101.367C221.319 102.633 224.493 102.858 227.459 102.002L228.307 101.758C232.324 100.599 235.595 97.6763 237.198 93.8156C238.356 91.0283 238.446 87.9125 237.453 85.0626L237.243 84.4599C235.986 80.8516 233.304 77.9167 229.823 76.3399L227.555 75.3122C226.478 74.8247 225.469 74.2014 224.551 73.4575L221.903 71.3104Z" stroke="#EF7C3B" stroke-width="0.8"/>
<path d="M232.359 82.1528L232.896 82.6018C234.863 84.2441 235.863 86.7703 235.556 89.3136V89.3136C235.279 91.5978 233.977 93.6319 232.019 94.8399L231.229 95.3271" stroke="#EF7C3B" stroke-width="0.8" stroke-linecap="round"/>
<g filter="url(#filter0_d_0_1)">
<path d="M209.116 96.3741L204.957 98.1112" stroke="#EF7C3B" stroke-width="0.8" stroke-linecap="round"/>
<path d="M212.468 101.449L208.919 104.859" stroke="#EF7C3B" stroke-width="0.8" stroke-linecap="round"/>
<path d="M217.211 105.293L215.039 109.427" stroke="#EF7C3B" stroke-width="0.8" stroke-linecap="round"/>
<path d="M223.062 107.285L222.223 111.713" stroke="#EF7C3B" stroke-width="0.8" stroke-linecap="round"/>
<path d="M228.904 107.114L229.805 111.578M234.543 105.006L237.116 108.861M239.098 100.841L242.655 103.724M242.016 95.5446L246.297 97.0499M242.913 89.5905L247.466 89.5485M241.639 83.6398L246.012 81.8802M238.479 78.3279L241.859 75.3701" stroke="#EF7C3B" stroke-width="0.8" stroke-linecap="round"/>
</g>
<path d="M214.575 76.3006L216.395 79.4525C217.059 80.6028 217.497 81.8692 217.687 83.1839L217.974 85.1749C218.061 85.7827 217.611 86.3356 216.998 86.3725V86.3725C216.437 86.4061 215.95 85.9931 215.891 85.4349L215.858 85.1291C215.807 84.644 216.017 84.1682 216.411 83.8795L216.856 83.5522C217.919 82.7718 219.417 83.026 220.163 84.1133L220.353 84.3913M220.353 84.3913L222.312 86.0767C222.471 86.2134 222.597 86.3842 222.68 86.5764L222.73 86.6925C223.342 88.1017 221.522 89.292 220.476 88.1672V88.1672C220.213 87.8841 220.081 87.5027 220.115 87.1175L220.353 84.3913ZM220.353 84.3913L220.626 83.7184C221.301 82.0539 223.437 81.5866 224.746 82.8172L225.073 83.1249C225.194 83.2391 225.282 83.3839 225.328 83.5441V83.5441C225.593 84.4696 224.444 85.1331 223.775 84.4412L223.68 84.343C223.625 84.2866 223.578 84.2238 223.539 84.1559L221.68 80.9369L221.201 80.1066L220.721 79.2762L219.762 77.6156L217.845 74.2943" stroke="#9EB81D" stroke-width="0.8"/>
<path d="M46.1945 112.337L46.6545 111.833L49.4844 109.253C50.2269 108.577 51.366 108.588 52.0953 109.279L54.7649 111.809C56.5686 113.883 57.5952 116.519 57.6691 119.267L57.6975 120.324L57.7259 122.657L43.722 122.795L43.7975 120.504L43.811 117.414C44.0746 115.52 44.9056 113.75 46.1945 112.337Z" fill="white"/>
<path d="M46.6545 111.833L46.1945 112.337C44.9056 113.75 44.0746 115.52 43.811 117.414V117.414L43.7975 120.504M46.6545 111.833L49.4844 109.253C50.2269 108.577 51.366 108.588 52.0953 109.279L54.7649 111.809M46.6545 111.833L54.7649 111.809M43.7975 120.504L57.6975 120.324M43.7975 120.504L43.722 122.795L57.7259 122.657L57.6975 120.324M57.6975 120.324L57.6691 119.267C57.5952 116.519 56.5686 113.883 54.7649 111.809V111.809" stroke="#9EB81D" stroke-width="0.8"/>
<path d="M57.7265 122.657L43.6346 122.991L43.1746 125.03C42.8379 126.522 42.2365 127.941 41.3988 129.22L39.4249 132.235C36.4707 136.746 36.602 142.612 39.7551 146.987C41.5602 149.491 44.1961 151.274 47.1929 152.015L48.0493 152.227C52.1072 153.232 56.4016 152.337 59.7204 149.795C62.1163 147.96 63.7529 145.307 64.3177 142.342L64.4372 141.715C65.1523 137.961 64.2972 134.079 62.0712 130.973L60.6203 128.948C59.9321 127.988 59.3697 126.944 58.9469 125.841L57.7265 122.657Z" stroke="#EF7C3B" stroke-width="0.8"/>
<path d="M61.3604 137.275L61.6015 137.932C62.4833 140.338 62.087 143.026 60.5487 145.075V145.075C59.1671 146.915 57.0228 148.025 54.7229 148.092L53.7952 148.119" stroke="#EF7C3B" stroke-width="0.8" stroke-linecap="round"/>
<g filter="url(#filter1_d_0_1)">
<path d="M34.1212 137.969L29.6512 137.394" stroke="#EF7C3B" stroke-width="0.8" stroke-linecap="round"/>
<path d="M34.4867 144.041L29.7078 145.219" stroke="#EF7C3B" stroke-width="0.8" stroke-linecap="round"/>
<path d="M36.6718 149.741L32.7242 152.235" stroke="#EF7C3B" stroke-width="0.8" stroke-linecap="round"/>
<path d="M40.743 154.392L37.8025 157.807" stroke="#EF7C3B" stroke-width="0.8" stroke-linecap="round"/>
<path d="M45.8878 157.165L44.4364 161.48M51.8253 158.158L52.1267 162.783M57.8533 156.829L59.4919 161.105M63.0286 153.701L65.9832 157.145M66.7818 148.993L70.7457 151.233M68.6543 143.203L73.3215 143.866M68.5737 137.023L72.9796 136.151" stroke="#EF7C3B" stroke-width="0.8" stroke-linecap="round"/>
</g>
<path d="M48.8855 123.315L48.8854 126.954C48.8854 128.282 48.632 129.598 48.1387 130.832L47.3917 132.699C47.1637 133.27 46.497 133.523 45.9477 133.249V133.249C45.4456 132.998 45.2298 132.396 45.4579 131.883L45.5828 131.602C45.7809 131.156 46.2009 130.85 46.6858 130.796L47.2353 130.736C48.546 130.591 49.716 131.56 49.8183 132.875L49.8444 133.211M49.8444 133.211L50.6979 135.65C50.7671 135.847 50.7906 136.058 50.7668 136.266L50.7523 136.392C50.5772 137.918 48.4062 138.039 48.0626 136.542V136.542C47.9761 136.165 48.0533 135.769 48.275 135.453L49.8444 133.211ZM49.8444 133.211L50.4172 132.764C51.834 131.66 53.9176 132.324 54.4353 134.044L54.5648 134.474C54.6128 134.633 54.6168 134.803 54.5764 134.965V134.965C54.3429 135.898 53.0158 135.898 52.7824 134.965L52.7492 134.832C52.7302 134.756 52.7206 134.678 52.7206 134.6L52.7205 130.882V129.924V128.965V127.047V123.212" stroke="#9EB81D" stroke-width="0.575265"/>
<defs>
<filter id="filter0_d_0_1" x="198.805" y="71.135" width="54.8136" height="48.6486" filterUnits="userSpaceOnUse" color-interpolation-filters="sRGB">
<feFlood flood-opacity="0" result="BackgroundImageFix"/>
<feColorMatrix in="SourceAlpha" type="matrix" values="0 0 0 0 0 0 0 0 0 0 0 0 0 0 0 0 0 0 127 0" result="hardAlpha"/>
<feOffset dy="1.91755"/>
<feGaussianBlur stdDeviation="2.87632"/>
<feComposite in2="hardAlpha" operator="out"/>
<feColorMatrix type="matrix" values="0 0 0 0 0.937255 0 0 0 0 0.486275 0 0 0 0 0.231373 0 0 0 1 0"/>
<feBlend mode="normal" in2="BackgroundImageFix" result="effect1_dropShadow_0_1"/>
<feBlend mode="normal" in="SourceGraphic" in2="effect1_dropShadow_0_1" result="shape"/>
</filter>
<filter id="filter1_d_0_1" x="23.4984" y="131.916" width="55.9758" height="38.9377" filterUnits="userSpaceOnUse" color-interpolation-filters="sRGB">
<feFlood flood-opacity="0" result="BackgroundImageFix"/>
<feColorMatrix in="SourceAlpha" type="matrix" values="0 0 0 0 0 0 0 0 0 0 0 0 0 0 0 0 0 0 127 0" result="hardAlpha"/>
<feOffset dy="1.91755"/>
<feGaussianBlur stdDeviation="2.87632"/>
<feComposite in2="hardAlpha" operator="out"/>
<feColorMatrix type="matrix" values="0 0 0 0 0.937255 0 0 0 0 0.486275 0 0 0 0 0.231373 0 0 0 1 0"/>
<feBlend mode="normal" in2="BackgroundImageFix" result="effect1_dropShadow_0_1"/>
<feBlend mode="normal" in="SourceGraphic" in2="effect1_dropShadow_0_1" result="shape"/>
</filter>
</defs>
</svg>
