<svg width="55" height="45" viewBox="0 0 55 45" fill="none" xmlns="http://www.w3.org/2000/svg">
<path d="M1.23767 35.7602C1.23767 35.7452 1.24983 35.733 1.26484 35.733H51.4418C52.8089 35.733 53.9171 36.8412 53.9171 38.2083V41.9524C53.9171 43.3194 52.8089 44.4277 51.4418 44.4277H1.26304C1.24903 44.4277 1.23767 44.4163 1.23767 44.4023C1.23767 44.0563 1.50497 43.7692 1.85004 43.7444L2.97172 43.6639C3.00045 43.6618 3.02517 43.6428 3.03452 43.6156L3.17546 43.2049C3.89652 41.1036 3.8565 38.8158 3.06238 36.7411L3.03545 36.6708C3.02536 36.6444 3.00177 36.6256 2.97382 36.6215L1.84361 36.4593C1.49587 36.4094 1.23767 36.1115 1.23767 35.7602Z" fill="#9EB81D"/>
<path d="M3.14127 36.1441C3.08463 35.949 3.23154 35.7542 3.43471 35.7551L29.5883 35.8703C30.9511 35.8763 32.0527 36.9828 32.0527 38.3456V40.8219C32.0527 42.189 30.9445 43.2972 29.5774 43.2972H3.40704C3.21961 43.2972 3.08652 43.1147 3.14387 42.9362C3.81827 40.8381 3.8503 38.5863 3.23584 36.4698L3.14127 36.1441Z" fill="white"/>
<path d="M1.90348 27.7054C1.84684 27.5102 1.99375 27.3155 2.19692 27.3164L28.3505 27.4316C29.7133 27.4376 30.8149 28.5441 30.8149 29.9069V32.3832C30.8149 33.7503 29.7067 34.8585 28.3396 34.8585H2.16925C1.98182 34.8585 1.84873 34.6759 1.90608 34.4975C2.58048 32.3994 2.61251 30.1476 1.99805 28.0311L1.90348 27.7054Z" fill="white"/>
<path d="M1.85632 10.4432C1.85632 10.4282 1.86849 10.416 1.88349 10.416H52.0605C53.4276 10.416 54.5358 11.5242 54.5358 12.8913V16.6354C54.5358 18.0025 53.4276 19.1107 52.0605 19.1107H1.88169C1.86768 19.1107 1.85632 19.0993 1.85632 19.0853C1.85632 18.7394 2.12362 18.4522 2.46869 18.4274L3.59037 18.3469C3.6191 18.3448 3.64382 18.3258 3.65317 18.2986L3.79411 17.8879C4.51518 15.7866 4.47515 13.4989 3.68104 11.4241L3.65411 11.3538C3.64401 11.3274 3.62043 11.3086 3.59247 11.3046L2.46226 11.1423C2.11452 11.0924 1.85632 10.7945 1.85632 10.4432Z" fill="#9EB81D"/>
<path d="M1.90348 10.8272C1.84684 10.6321 1.99375 10.4374 2.19692 10.4383L28.3505 10.5535C29.7133 10.5595 30.8149 11.6659 30.8149 13.0287V15.5051C30.8149 16.8721 29.7067 17.9804 28.3396 17.9804H2.16925C1.98182 17.9804 1.84873 17.7978 1.90608 17.6193C2.58048 15.5212 2.61251 13.2694 1.99805 11.1529L1.90348 10.8272Z" fill="white"/>
<path d="M52.6796 18.2635C52.6796 18.2485 52.6674 18.2363 52.6524 18.2363H2.4754C1.10833 18.2363 9.91821e-05 19.3445 9.91821e-05 20.7116V24.4557C9.91821e-05 25.8227 1.10833 26.931 2.4754 26.931H52.6542C52.6682 26.931 52.6796 26.9196 52.6796 26.9056C52.6796 26.5596 52.4123 26.2725 52.0672 26.2477L50.9455 26.1672C50.9168 26.1651 50.8921 26.1461 50.8827 26.1189L50.7418 25.7082C50.0207 23.6069 50.0607 21.3191 50.8549 19.2444L50.8818 19.1741C50.8919 19.1477 50.9155 19.1288 50.9434 19.1248L52.0736 18.9626C52.4214 18.9127 52.6796 18.6148 52.6796 18.2635Z" fill="white"/>
<path d="M50.7474 19.0415C50.8129 18.9059 50.7138 18.7484 50.5631 18.7488L4.25859 18.8714C2.89409 18.875 1.78985 19.9822 1.78985 21.3467V23.9444C1.78985 25.3115 2.89808 26.4197 4.26515 26.4197H50.5762C50.7179 26.4197 50.8084 26.2686 50.7416 26.1437C49.6111 24.0293 49.5591 21.502 50.6018 19.343L50.7474 19.0415Z" fill="white"/>
<path d="M52.6796 1.38556C52.6796 1.37056 52.6674 1.3584 52.6524 1.3584H2.4754C1.10833 1.3584 9.91821e-05 2.46663 9.91821e-05 3.8337V7.57777C9.91821e-05 8.94484 1.10833 10.0531 2.4754 10.0531H52.6542C52.6682 10.0531 52.6796 10.0417 52.6796 10.0277C52.6796 9.68174 52.4123 9.39457 52.0672 9.3698L50.9455 9.28929C50.9168 9.28723 50.8921 9.2682 50.8827 9.24096L50.7418 8.83025C50.0207 6.72902 50.0607 4.44125 50.8549 2.36652L50.8818 2.29616C50.8919 2.26979 50.9155 2.25095 50.9434 2.24694L52.0736 2.0847C52.4214 2.03478 52.6796 1.73687 52.6796 1.38556Z" fill="white"/>
<path d="M50.7488 2.40216C50.813 2.27562 50.7208 2.12591 50.5789 2.12627L3.49173 2.24496C2.1271 2.2484 1.02267 3.35562 1.02267 4.72025V7.06623C1.02267 8.4333 2.1309 9.54153 3.49797 9.54153H50.5903C50.724 9.54153 50.8083 9.39755 50.7428 9.28096C49.5988 7.24456 49.5465 4.77161 50.6034 2.68868L50.7488 2.40216Z" fill="white"/>
<path d="M23.5846 36.8016H31.2563M22.6895 39.3588H31.3842M27.5483 41.6604H31.3842M20.1323 39.3588H21.4109M22.9658 28.3627H30.6375M22.6895 30.9199H31.3842M26.9295 33.2214H30.7654M20.1323 30.9199H21.4109M23.5846 11.4847H31.2563M22.6895 14.042H31.3842M27.5483 16.3435H31.3842M20.1323 14.042H21.4109M10.9057 19.9237H3.23394M11.4376 22.481H2.74295M7.19767 24.7825H3.36179M13.9949 22.481H12.7162M35.9873 18.6451L35.8157 19.5314C35.4226 21.5627 35.4374 23.652 35.8594 25.6776M10.1385 3.04578H2.46676M10.6704 5.60305H1.97577M6.43049 7.90459H2.59461M13.2277 5.60305H11.9491M35.9873 2.02289L35.8157 2.90916C35.4226 4.94051 35.4374 7.02978 35.8594 9.05534M2.43119 42.6867L1.30952 42.7672C0.964446 42.7919 0.697148 43.0791 0.697148 43.4251C0.697148 43.4391 0.708505 43.4504 0.722515 43.4504H50.9013C52.2684 43.4504 53.3766 42.3422 53.3766 40.9751V37.2311C53.3766 35.864 52.2684 34.7558 50.9013 34.7558H0.724313C0.70931 34.7558 0.697148 34.7679 0.697148 34.7829C0.697148 35.1342 0.955343 35.4321 1.30309 35.4821L2.4333 35.6443C2.46125 35.6483 2.48484 35.6672 2.49493 35.6935L2.52186 35.7639C3.31598 37.8386 3.356 40.1264 2.63494 42.2276L2.494 42.6383C2.48465 42.6656 2.45993 42.6846 2.43119 42.6867ZM2.60326 42.578C3.27766 40.4798 3.30969 38.228 2.69523 36.1116L2.60067 35.7858C2.54402 35.5907 2.69093 35.396 2.8941 35.3969L29.0477 35.5121C30.4105 35.5181 31.5121 36.6245 31.5121 37.9874V40.4637C31.5121 41.8307 30.4038 42.939 29.0368 42.939H2.86643C2.679 42.939 2.54591 42.7564 2.60326 42.578ZM2.43119 34.2477L1.30952 34.3282C0.964446 34.353 0.697148 34.6401 0.697148 34.9861C0.697148 35.0001 0.708504 35.0115 0.722515 35.0115H50.9013C52.2684 35.0115 53.3766 33.9032 53.3766 32.5362V28.7921C53.3766 27.425 52.2684 26.3168 50.9013 26.3168H0.724313C0.70931 26.3168 0.697148 26.329 0.697148 26.344C0.697148 26.6953 0.955343 26.9932 1.30309 27.0431L2.4333 27.2053C2.46125 27.2094 2.48484 27.2282 2.49493 27.2546L2.52186 27.3249C3.31598 29.3997 3.356 31.6874 2.63494 33.7887L2.494 34.1994C2.48465 34.2266 2.45993 34.2456 2.43119 34.2477ZM2.60326 34.139C3.27766 32.0409 3.30969 29.7891 2.69523 27.6726L2.60067 27.3469C2.54402 27.1518 2.69093 26.957 2.8941 26.9579L29.0477 27.0731C30.4105 27.0791 31.5121 28.1856 31.5121 29.5484V32.0247C31.5121 33.3918 30.4038 34.5 29.0368 34.5H2.86643C2.679 34.5 2.54591 34.3175 2.60326 34.139ZM2.43119 17.3698L1.30952 17.4503C0.964446 17.4751 0.697148 17.7623 0.697148 18.1082C0.697148 18.1222 0.708505 18.1336 0.722515 18.1336H50.9013C52.2684 18.1336 53.3766 17.0254 53.3766 15.6583V11.9142C53.3766 10.5472 52.2684 9.43892 50.9013 9.43892H0.724313C0.70931 9.43892 0.697148 9.45108 0.697148 9.46609C0.697148 9.81739 0.955343 10.1153 1.30309 10.1652L2.4333 10.3275C2.46125 10.3315 2.48484 10.3503 2.49493 10.3767L2.52186 10.447C3.31598 12.5218 3.356 14.8095 2.63494 16.9108L2.494 17.3215C2.48465 17.3487 2.45993 17.3678 2.43119 17.3698ZM2.60326 17.2611C3.27766 15.163 3.30969 12.9112 2.69523 10.7947L2.60067 10.469C2.54402 10.2738 2.69093 10.0791 2.8941 10.08L29.0477 10.1952C30.4105 10.2012 31.5121 11.3077 31.5121 12.6705V15.1468C31.5121 16.5139 30.4038 17.6221 29.0368 17.6221H2.86643C2.679 17.6221 2.54591 17.4395 2.60326 17.2611ZM51.6426 25.8088L52.7642 25.8893C53.1093 25.9141 53.3766 26.2012 53.3766 26.5472C53.3766 26.5612 53.3653 26.5725 53.3512 26.5725H3.17244C1.80537 26.5725 0.697144 25.4643 0.697144 24.0973V20.3532C0.697144 18.9861 1.80537 17.8779 3.17244 17.8779H53.3494C53.3644 17.8779 53.3766 17.89 53.3766 17.905C53.3766 18.2564 53.1184 18.5543 52.7707 18.6042L51.6405 18.7664C51.6125 18.7704 51.5889 18.7893 51.5788 18.8156L51.5519 18.886C50.7578 20.9607 50.7178 23.2485 51.4388 25.3497L51.5798 25.7604C51.5891 25.7877 51.6138 25.8067 51.6426 25.8088ZM51.4389 25.7851C50.3084 23.6707 50.2565 21.1434 51.2992 18.9844L51.4447 18.683C51.5103 18.5473 51.4111 18.3898 51.2605 18.3902L4.95596 18.5129C3.59146 18.5165 2.48722 19.6236 2.48722 20.9881V23.5858C2.48722 24.9529 3.59545 26.0611 4.96252 26.0611H51.2735C51.4152 26.0611 51.5058 25.9101 51.4389 25.7851ZM51.6426 8.93089L52.7642 9.0114C53.1093 9.03617 53.3766 9.32334 53.3766 9.6693C53.3766 9.68331 53.3653 9.69467 53.3512 9.69467H3.17244C1.80537 9.69467 0.697144 8.58644 0.697144 7.21937V3.4753C0.697144 2.10823 1.80537 1 3.17244 1H53.3494C53.3644 1 53.3766 1.01216 53.3766 1.02717C53.3766 1.37847 53.1184 1.67638 52.7707 1.7263L51.6405 1.88854C51.6125 1.89255 51.5889 1.91139 51.5788 1.93776L51.5519 2.00812C50.7578 4.08285 50.7178 6.37062 51.4388 8.47185L51.5798 8.88256C51.5891 8.9098 51.6138 8.92883 51.6426 8.93089ZM51.4402 8.92263C50.2962 6.88624 50.2439 4.41329 51.3008 2.33036L51.4461 2.04384C51.5104 1.91729 51.4182 1.76759 51.2763 1.76795L4.18911 1.88664C2.82448 1.89008 1.72005 2.99729 1.72005 4.36193V6.70791C1.72005 8.07498 2.82827 9.18321 4.19534 9.18321H51.2877C51.4214 9.18321 51.5056 9.03923 51.4402 8.92263Z" stroke="black" stroke-width="0.309412" stroke-linecap="round"/>
</svg>
