<svg width="153" height="84" viewBox="0 0 153 84" fill="none" xmlns="http://www.w3.org/2000/svg">
<path d="M0.000107999 83.2276L16.0069 83.2276C34.0755 83.2276 50.401 72.4465 57.4957 55.829L61.9 45.5129C64.2899 39.9152 69.0124 35.6455 74.8219 33.8299V33.8299C86.2718 30.2517 99.7531 37.5731 96.566 49.1381C93.5624 60.0372 84.8756 65.6155 74.9024 68.0122C61.685 71.1886 50.7825 59.4424 49.1727 45.9443V45.9443C46.9484 27.2939 62.4116 11.3043 81.126 12.9031L93.377 13.9498C110.817 15.4398 123.784 -1.86048 117.462 -18.1818L116.685 -20.186C111.841 -32.693 119.314 -46.5702 132.423 -49.4085V-49.4085C141.681 -51.4131 148.59 -59.1596 149.527 -68.5859L152.236 -95.8439L150.82 -156" stroke="#9EBB13" stroke-width="0.5"/>
</svg>
