<svg width="190" height="206" viewBox="0 0 190 206" fill="none" xmlns="http://www.w3.org/2000/svg">
<path d="M111.761 69.558L128.125 27.6088" stroke="#9EB81D" stroke-opacity="0.15" stroke-linecap="round"/>
<path d="M118.249 85.8175L134.614 43.8683" stroke="#9EB81D" stroke-opacity="0.15" stroke-linecap="round"/>
<path d="M125.594 102.688L141.958 60.7391" stroke="#9EB81D" stroke-opacity="0.15" stroke-linecap="round"/>
<path d="M131.47 119.804L147.835 77.8552" stroke="#9EB81D" stroke-opacity="0.15" stroke-linecap="round"/>
<path d="M60.2794 63.8363L100.391 73.7211" stroke="#9EB81D" stroke-opacity="0.15" stroke-linecap="round"/>
<path d="M66.1576 80.9518L106.269 90.8366" stroke="#9EB81D" stroke-opacity="0.15" stroke-linecap="round"/>
<path d="M74.7244 96.1102L114.836 105.995" stroke="#9EB81D" stroke-opacity="0.15" stroke-linecap="round"/>
<path d="M80.3565 111.759L120.468 121.643" stroke="#9EB81D" stroke-opacity="0.15" stroke-linecap="round"/>
<path d="M152.643 156.233L174.252 87.0133M174.252 87.0133L164.47 87.1404L143.775 150.153C143.492 151.016 142.297 151.085 141.917 150.26L100.384 60.1486L121.634 6.82519M174.252 87.0133L131.904 5.10825L121.634 6.82519M121.634 6.82519L159.453 79.684" stroke="#9EB81D" stroke-opacity="0.15"/>
<path d="M142.862 163.146L69.001 147.592M69.001 147.592L74.3749 134.628L139.045 151.944C139.86 152.162 140.562 151.336 140.216 150.568L99.3075 59.6925L43.0284 46.3587M69.001 147.592L38.3904 63.7244L43.0284 46.3587M43.0284 46.3587L72.9032 125.824" stroke="#9EB81D" stroke-opacity="0.15"/>
</svg>
