<svg width="112" height="109" viewBox="0 0 112 109" fill="none" xmlns="http://www.w3.org/2000/svg">
<path d="M15.8458 20.5872L16.5614 19.7644C22.4623 12.9795 30.2095 8.0577 38.8587 5.59877L45.8768 3.77706C49.4842 2.84069 53.1768 2.27072 56.8987 2.07581C60.0144 1.91264 63.1382 2.01297 66.2373 2.37573L66.5646 2.41405C69.3697 2.74242 72.1479 3.27079 74.8776 3.99511L75.81 4.24258C80.5578 5.50234 85.1658 7.23947 89.5637 9.42742L90.5241 9.90522L92.231 10.9668C95.4022 12.9388 98.2493 15.3888 100.672 18.2301C103.266 21.2722 105.339 24.7222 106.807 28.4407L107.565 30.3609L108.918 35.4748L108.988 35.8399C109.661 39.3568 110 42.9294 110 46.5101L109.73 51.8932C109.19 57.4345 107.972 62.8886 106.102 68.1328L105.943 68.5807L105.259 70.1498C103.376 74.4746 101.039 78.5872 98.2881 82.4195L97.5037 83.5122C95.3807 86.4697 92.9621 89.2027 90.2845 91.6692C88.1038 93.6787 85.7595 95.5035 83.2768 97.1249L78.3519 100.341L77.4976 100.858C69.9505 105.429 61.1912 107.596 52.3837 107.07L49.3865 106.719C45.2626 106.236 41.194 105.362 37.2357 104.109L31.2847 101.956L26.9567 99.8025L22.6288 97.1109C17.3018 93.4004 12.7435 88.6175 9.31035 83.108C7.19728 79.7166 5.51683 76.0744 4.30815 72.2659L3.95334 71.1479C3.24038 68.9015 2.70145 66.6035 2.34132 64.2742L2.07082 60.5061L2.06671 60.4205C1.88952 56.7175 2.0655 53.0068 2.59229 49.3377L2.7897 47.9627C3.38981 43.7828 4.54003 39.7007 6.21045 35.8224C7.23598 33.4413 8.45315 31.1475 9.84994 28.9635L11.4498 26.4619C12.7693 24.3987 14.2387 22.4352 15.8458 20.5872Z" fill="white" stroke="#EF7C3B" stroke-width="2.5"/>
<path d="M52.4012 2.90723V7.75228M2.33862 56.7379L3.13912 56.6652C4.57561 56.5344 5.99535 56.2599 7.37691 55.8454L7.99085 55.6613" stroke="#EF7C3B" stroke-width="2.5" stroke-linecap="round"/>
<path d="M60.4758 103.571V106.8" stroke="#EF7C3B" stroke-width="2.5" stroke-linecap="round"/>
<path d="M102.464 55.123L103.794 54.5149C105.586 53.6953 107.501 53.1734 109.462 52.9697" stroke="#EF7C3B" stroke-width="2.5" stroke-linecap="round"/>
<path d="M67.4388 104.91L66.3557 99.5107L64.4592 92.2215L62.8341 85.4717L62.5628 83.8519L62.0213 81.1523L61.4797 78.4521C61.308 77.7679 61.449 77.0428 61.8646 76.4733L62.9762 74.9499C63.2416 74.586 63.4682 74.1952 63.6518 73.7839L65.5429 69.5432L65.7673 68.7965C66.6965 65.7109 67.168 62.5059 67.168 59.2836V56.584C67.168 55.685 67.2321 54.7876 67.3596 53.8977L67.4388 53.3441L67.7101 49.8343L67.9809 47.6745L68.2516 44.9747L68.4325 43.4427C68.6726 41.4071 69.065 39.3923 69.606 37.4152L70.4188 34.4454L71.7732 30.9356L72.6399 28.1286C72.7836 27.6627 72.8568 27.1779 72.8568 26.6904V25.871C72.8568 25.6507 72.8052 25.4334 72.7066 25.2365C72.4666 24.7581 71.9772 24.4561 71.4416 24.4561H71.3899C70.9464 24.4561 70.5254 24.6529 70.2407 24.9934L69.3352 26.076L68.2516 27.6958L65.2721 33.6354L64.4592 35.7953L63.6464 37.9551L61.6218 45.2712C61.5992 45.3523 61.4797 45.3361 61.4797 45.2518C61.4797 45.247 61.4797 45.2423 61.4808 45.2376L62.5628 39.845L63.1049 37.4152L63.8569 33.8555C64.077 32.8117 64.1885 31.7478 64.1885 30.681C64.1885 29.9517 64.2402 29.2234 64.3435 28.5016L64.4592 27.6958L64.9916 22.125C64.9981 22.0594 65.0126 21.9949 65.0352 21.933C65.3108 21.1771 64.3947 20.5534 63.7928 21.0869L63.6922 21.1761C63.6615 21.2029 63.6335 21.2318 63.6076 21.2627L62.8179 22.2072C61.5734 23.6958 60.5888 25.3836 59.9052 27.1996L59.3125 28.7758L58.2289 31.4756L57.1453 35.2553L56.3324 39.035L55.5567 45.7383C55.5417 45.8663 55.3855 45.9208 55.2946 45.8298C55.2655 45.8009 55.2488 45.7616 55.2488 45.7205V37.6852L55.5201 34.4454V31.4756L55.7909 27.1559V22.9418C55.7909 22.8716 55.7979 22.8015 55.8113 22.7326C56.0003 21.7929 54.9468 21.1031 54.1608 21.6514L53.8569 21.8635C53.7034 21.9706 53.5769 22.1116 53.4872 22.2757L51.9983 24.996L50.6439 28.5058L49.8312 31.4756L49.0185 35.2553L48.7476 37.9551L48.4768 41.1949V46.9663C48.4768 47.228 48.1605 47.3593 47.9751 47.1746C47.9486 47.1481 47.9274 47.1169 47.9126 47.0824L47.4535 46.0148C47.2336 45.5036 47.0823 44.9656 47.0034 44.4147L46.5805 41.4649L46.0387 36.8752L45.7678 31.7456L46.0387 27.1559V25.1877C46.0387 25.0819 45.9529 24.996 45.8471 24.996C45.7963 24.996 45.7476 25.0161 45.7117 25.0519L44.9496 25.8115C44.5985 26.1615 44.3467 26.5985 44.2201 27.0779L43.059 31.4756L42.2463 35.2553L41.8138 37.9851C41.5607 39.5826 41.4336 41.1974 41.4336 42.8148L41.1627 45.7846L40.8918 49.2944V53.0476C40.8918 53.6538 40.2308 54.0288 39.7105 53.7176C39.5969 53.6497 39.5025 53.554 39.4361 53.4397L36.9055 49.0833C36.6742 48.6851 36.402 48.3122 36.0934 47.9704L34.6142 46.3324C34.2993 45.9836 33.8514 45.7846 33.3815 45.7846C32.827 45.7846 32.3092 46.0612 32.0009 46.5221L31.4579 47.3338C31.0739 47.908 30.8689 48.5832 30.8689 49.2739V49.6689C30.8689 50.1367 30.9374 50.6019 31.0722 51.0497L31.6816 53.0741L32.4943 54.9642L33.3069 57.1239L34.3904 60.0937L36.0158 64.1434L37.9121 68.733L37.9491 68.8439C38.6431 70.9191 39.6343 72.8823 40.8918 74.6727C42.1383 76.0922 43.7029 77.1973 45.4579 77.8966L45.497 77.9122L45.5818 77.9364C46.7472 78.2686 47.9944 78.1528 49.0788 77.6124L50.0527 77.1268C50.0852 77.1107 50.121 77.1026 50.1573 77.1026C50.2792 77.1026 50.3808 77.1957 50.3909 77.3174L50.9147 83.5822L51.1856 86.0121L51.4566 88.7117L51.7274 91.4113L51.9983 93.3013L52.2692 97.0813L52.5401 100.051L53.0819 103.02L53.3527 106.8" stroke="#9EBB13" stroke-width="1.9"/>
<path d="M58.0615 54.5547H53.7722C53.3171 54.5547 52.9003 54.8092 52.6923 55.2139L50.8187 58.8588C50.7368 59.0181 50.8442 59.2093 51.0228 59.2223L52.5086 59.3303C52.8501 59.3552 53.178 59.4747 53.4553 59.6755V59.6755C53.9788 60.0546 54.2887 60.6616 54.2887 61.3079V61.3758C54.2887 62.1624 54.0773 62.9345 53.6767 63.6114L53.0311 64.7023L52.4583 65.4447C52.0669 65.9521 51.5453 66.3441 50.9491 66.579V66.579C50.6066 66.7139 50.2388 66.7723 49.8713 66.75L49.6298 66.7354C48.5624 66.6707 47.8208 65.6459 48.093 64.6118L48.2175 64.1385" stroke="#EF7C3B" stroke-linecap="round"/>
<ellipse cx="62.3546" cy="64.4854" rx="3.33914" ry="2.21164" fill="#EFCEDF"/>
<ellipse cx="42.8402" cy="64.4854" rx="3.33914" ry="2.21164" fill="#EFCEDF"/>
<path d="M47.1334 58.978C47.1334 57.086 45.5995 55.5522 43.7075 55.5522C41.8154 55.5522 40.2816 57.086 40.2816 58.978" stroke="#3B4A72" stroke-linecap="round"/>
<path d="M64.9131 58.978C64.9131 57.086 63.3793 55.5522 61.4873 55.5522C59.5952 55.5522 58.0614 57.086 58.0614 58.978" stroke="#3B4A72" stroke-linecap="round"/>
<path d="M59.8827 66.5236C59.8827 69.5892 56.5627 72.0744 52.4673 72.0744C48.3718 72.0744 45.0518 69.5892 45.0518 66.5236" stroke="#3B4A72" stroke-linecap="round"/>
</svg>
