<svg width="18" height="19" viewBox="0 0 18 19" fill="none" xmlns="http://www.w3.org/2000/svg">
<path d="M7.67838 0.0111893C7.67137 0.0183454 7.6617 0.0223742 7.65168 0.0223949C3.43085 0.0311041 0 3.54119 0 7.8549C0 12.174 3.43939 15.6874 7.66743 15.6874C8.81773 15.6874 9.95069 15.4393 10.9428 14.9587C11.1547 14.8561 11.4092 14.9084 11.5888 15.0608L13.7795 17.2987C13.9817 17.5312 14.2284 17.719 14.5043 17.8506C14.7802 17.9822 15.0796 18.0548 15.384 18.064C15.6883 18.0732 15.9913 18.0187 16.2743 17.9039C16.5574 17.7891 16.8144 17.6164 17.0297 17.3964C17.2451 17.1765 17.4141 16.9139 17.5265 16.6248C17.6389 16.3357 17.6922 16.0261 17.6832 15.7152C17.6743 15.4043 17.6032 15.0985 17.4744 14.8166C17.3455 14.5348 17.1617 14.2828 16.9341 14.0762L14.7434 11.8383C14.5624 11.6534 14.4882 11.3741 14.5984 11.14C15.0693 10.1399 15.3568 9.01214 15.3568 7.83252C15.3568 3.51881 11.9259 0.00872558 7.70508 1.62426e-05C7.69506 -4.42087e-06 7.68539 0.00403319 7.67838 0.0111893ZM7.65647 2.27143C7.66348 2.26428 7.67316 2.26024 7.68318 2.26026C10.7209 2.26881 13.1442 4.74964 13.1442 7.8549C13.1442 9.33189 12.6184 10.697 11.6983 11.704C11.6764 11.7264 11.6545 11.7488 11.6326 11.7712C11.5291 11.859 11.4338 11.9564 11.3478 12.0621C10.3839 12.9572 9.06947 13.4719 7.64552 13.4719C4.60046 13.4719 2.16879 10.9879 2.16879 7.87728C2.16879 4.77201 4.59208 2.29119 7.62977 2.28264C7.63978 2.28261 7.64947 2.27859 7.65647 2.27143Z" fill="#9EB81D"/>
</svg>
