<svg width="45" height="45" viewBox="0 0 45 45" fill="none" xmlns="http://www.w3.org/2000/svg">
<path d="M44 22.5C44 34.3741 34.3741 44 22.5 44C10.6259 44 1 34.3741 1 22.5C1 10.6259 10.6259 1 22.5 1C34.3741 1 44 10.6259 44 22.5Z" fill="white" stroke="#EF7C3B" stroke-width="2"/>
<path fill-rule="evenodd" clip-rule="evenodd" d="M9.74884 21.0759C16.5777 18.1007 21.1313 16.1392 23.4098 15.1915C29.9151 12.4857 31.2669 12.0157 32.148 12.0002C32.3417 11.9968 32.775 12.0448 33.0557 12.2725C33.2927 12.4648 33.3579 12.7246 33.3891 12.9069C33.4203 13.0892 33.4591 13.5045 33.4282 13.8291C33.0757 17.5331 31.5503 26.5218 30.7743 30.6704C30.4459 32.4259 29.7994 33.0145 29.1734 33.0721C27.8131 33.1972 26.7801 32.173 25.4626 31.3094C23.4009 29.9579 22.2361 29.1166 20.2349 27.7978C17.9221 26.2737 19.4214 25.4361 20.7394 24.0671C21.0844 23.7088 27.078 18.2571 27.194 17.7626C27.2085 17.7007 27.222 17.4702 27.085 17.3484C26.9481 17.2267 26.7459 17.2683 26.6 17.3014C26.3932 17.3483 23.0997 19.5253 16.7192 23.8323C15.7844 24.4742 14.9376 24.787 14.1789 24.7706C13.3425 24.7525 11.7336 24.2977 10.5376 23.9089C9.07057 23.4321 7.90464 23.1799 8.00616 22.3701C8.05904 21.9482 8.63994 21.5169 9.74884 21.0759Z" fill="#9EB81D"/>
</svg>
