<svg width="45" height="45" viewBox="0 0 45 45" fill="none" xmlns="http://www.w3.org/2000/svg">
<circle cx="22.5" cy="22.5" r="22" fill="white" stroke="#EF7C3B"/>
<circle cx="22.5719" cy="15.8485" r="5.28282" fill="#9EB81D"/>
<path d="M15.4643 24.4931L15.9446 24.0128L16.4249 23.5326L17.2893 23.0523L17.8272 22.8122L18.3459 22.5721L19.7866 22.0918H26.1371L27.951 22.5721L29.872 23.5326L30.8325 24.4931L31.7931 25.9338L32.2733 26.9904L32.7536 28.8154V31.6969L32.2733 32.6574L31.7931 33.4258L31.3128 33.81L30.8325 34.0982L29.872 34.5785H15.9446L14.9841 34.0982L14.0236 33.1377L13.7354 32.4173L13.5433 31.6969L13.4473 29.2956L13.5433 27.8549L13.9275 26.8944L14.5038 25.4536L15.4643 24.4931Z" fill="#9EB81D"/>
</svg>
