<svg width="45" height="45" viewBox="0 0 45 45" fill="none" xmlns="http://www.w3.org/2000/svg">
<path d="M1 21.6C1 16.4806 1.00212 12.7416 1.38649 9.88271C1.76699 7.05261 2.5055 5.23521 3.87035 3.87035C5.23521 2.5055 7.05261 1.76699 9.88271 1.38649C12.7416 1.00212 16.4806 1 21.6 1L23.4 1C28.5194 1 32.2584 1.00212 35.1173 1.38649C37.9474 1.76699 39.7648 2.5055 41.1296 3.87035C42.4945 5.23521 43.233 7.05261 43.6135 9.88271C43.9979 12.7416 44 16.4806 44 21.6V23.4C44 28.5194 43.9979 32.2584 43.6135 35.1173C43.233 37.9474 42.4945 39.7648 41.1296 41.1296C39.7648 42.4945 37.9474 43.233 35.1173 43.6135C32.2584 43.9979 28.5194 44 23.4 44H21.6C16.4806 44 12.7416 43.9979 9.88271 43.6135C7.05261 43.233 5.23521 42.4945 3.87035 41.1296C2.5055 39.7648 1.76699 37.9474 1.38649 35.1173C1.00212 32.2584 1 28.5194 1 23.4L1 21.6Z" fill="white" stroke="#EF7C3B" stroke-width="2"/>
<path d="M23.9438 32.4188C13.6876 32.4188 7.83762 25.3876 7.59387 13.6876H12.7314C12.9001 22.2751 16.6875 25.9126 19.6875 26.6626V13.6876H24.5252V21.0938C27.4877 20.7751 30.5998 17.4001 31.6498 13.6876H36.4875C35.6812 18.2626 32.3062 21.6376 29.9062 23.0251C32.3062 24.1501 36.1501 27.0938 37.6126 32.4188H32.2875C31.1437 28.8563 28.2939 26.1001 24.5252 25.7251L24.5252 32.4188H23.9438Z" fill="#9EB81D"/>
</svg>
