<svg width="47" height="47" viewBox="0 0 47 47" fill="none" xmlns="http://www.w3.org/2000/svg">
<path d="M12.0253 42.8494C15.4001 44.8746 19.45 45.9998 23.4999 46C35.8745 46.0007 45.9995 35.8766 45.9999 23.5019C46.0002 11.1273 35.8758 1.002 23.5012 1.00129C11.1265 1.00058 1.00154 11.1247 1.00118 23.4993C1.00106 27.5492 2.12592 31.3742 3.92577 34.7492L1.99061 42.1874C1.89077 42.5714 1.89425 42.9749 2.00069 43.3571C2.10714 43.7394 2.31276 44.0866 2.59671 44.3637C2.88066 44.6409 3.23283 44.838 3.61753 44.9351C4.00222 45.0322 4.40575 45.0258 4.7872 44.9167L12.0253 42.8494Z" fill="white" stroke="#EF7C3B" stroke-width="2" stroke-miterlimit="10" stroke-linecap="round" stroke-linejoin="round"/>
<path d="M38.6386 31.2582C38.6687 31.7521 38.5899 32.2679 38.3852 32.7761C38.1767 33.301 37.8909 33.7918 37.5373 34.2323C36.9086 35.0141 36.2002 35.5927 35.3797 35.9884C34.5774 36.383 33.6949 36.6141 32.7345 36.6725C31.3321 36.7578 29.8151 36.5196 28.1919 35.9451C26.475 35.3216 24.8342 34.5057 23.3009 33.5129C21.6339 32.4441 20.0495 31.2516 18.5611 29.9455C17.0873 28.6339 15.715 27.2126 14.456 25.6937C13.2992 24.304 12.3 22.7904 11.4764 21.1808C10.7223 19.6507 10.3022 18.1768 10.2156 16.753C10.1589 15.82 10.2694 14.9198 10.5486 14.0766C10.8269 13.2181 11.3045 12.4179 11.9915 11.6876C12.8169 10.7683 13.7515 10.2861 14.7698 10.2242C15.1539 10.2009 15.5431 10.2598 15.8976 10.4035C16.2643 10.5464 16.5934 10.7743 16.8651 11.1158L20.3271 15.4097C20.5918 15.7364 20.794 16.0423 20.9343 16.3367C21.0737 16.6159 21.1614 16.9013 21.1772 17.1604C21.1942 17.5065 21.1145 17.8504 20.9469 18.1536C20.7569 18.5234 20.5184 18.8662 20.2377 19.173L19.258 20.3219C19.1896 20.3975 19.1377 20.4866 19.1056 20.5834C19.0736 20.6802 19.0621 20.7826 19.0718 20.8841C19.0783 20.9908 19.0995 21.0874 19.1336 21.1955C19.1799 21.3028 19.2276 21.3826 19.2601 21.4632C19.5316 21.9027 19.9942 22.4651 20.6443 23.1416C21.3066 23.8174 22.0095 24.506 22.767 25.1883C23.5553 25.8717 24.3095 26.4991 25.0758 27.0737C25.8257 27.6309 26.4422 28.0065 26.9237 28.2251L27.1806 28.3227C27.2925 28.3551 27.4093 28.3667 27.5254 28.3568C27.6307 28.3527 27.734 28.3266 27.8287 28.2803C27.9233 28.2339 28.0073 28.1684 28.0752 28.0877L29.0552 26.9938C29.3789 26.6314 29.6924 26.3522 29.9993 26.1653C30.2796 25.9617 30.6118 25.8418 30.9575 25.8193C31.2464 25.806 31.535 25.8498 31.8069 25.9482C32.1161 26.0518 32.444 26.2094 32.7997 26.4234L37.5447 29.3724C37.8874 29.5668 38.168 29.8542 38.354 30.2014C38.5172 30.5316 38.6139 30.8907 38.6386 31.2582Z" fill="#9EB81D"/>
</svg>
